<?xml version="1.0" encoding="UTF-8"?>
<svg id="WORKING_LAYER" xmlns="http://www.w3.org/2000/svg" xmlns:xlink="http://www.w3.org/1999/xlink" viewBox="0 0 94.54 60.08">
  <defs>
    <style>
      .cls-1 {
        fill: none;
      }

      .cls-2 {
        fill: #cfc6bb;
        fill-rule: evenodd;
      }

      .cls-3 {
        fill: #3c6a79;
      }

      .cls-4 {
        clip-path: url(#clippath);
      }
    </style>
    <clipPath id="clippath">
      <rect class="cls-1" x=".32" y="1.03" width="93.9" height="58.03"/>
    </clipPath>
  </defs>
  <g class="cls-4">
    <path class="cls-3" d="M44.51,6.54c-.05-.36-.22-.64-.5-.84-.28-.2-.6-.31-.96-.31h-7.36c-.97,0-1.46.38-1.46,1.15,0,.09.02.23.03.34h10.31l-.06-.34Z"/>
    <path class="cls-3" d="M89.9,5.39h-7.36c-.36,0-.68.1-.96.31-.28.2-.45.49-.5.84l-.06.34-2.03,10.74-4.58,24.26c-.05.36-.23.54-.54.54h-.46c-.31,0-.49-.18-.54-.54l-3.84-24.26-1.7-10.74-.05-.34c-.15-.77-.64-1.15-1.46-1.15h-6.13c-.82,0-1.3.38-1.46,1.15l-.05.34-1.68,10.74-3.79,24.26c-.05.36-.23.54-.54.54h-.46c-.31,0-.49-.18-.54-.54l-4.58-24.26h-10.21l8.12,40.29c.05.36.22.64.5.84.28.2.6.31.96.31h10.66c.36,0,.68-.1.96-.31.28-.2.45-.49.5-.84l4.22-26.45c.05-.36.2-.54.46-.54s.41.18.46.54l4.22,26.45c.05.36.22.64.5.84.28.2.6.31.96.31h10.66c.36,0,.68-.1.96-.31.28-.2.45-.49.5-.84l8.18-40.29.33-1.64,1.61-7.91c.15-.72.23-1.23.23-1.53,0-.77-.49-1.15-1.46-1.15"/>
    <path class="cls-2" d="M44.57,6.89h-25.68c-1.91-3.49-5.61-5.86-9.86-5.86C5.52,1.03,2.38,2.65.32,5.17H.32s6.48.01,6.48.01h.71l.5.5,1.86,1.86.5.5v1.64s-.01.05-.01.07v6.31s.01.05.01.07v.31l-.5.5-1.88,1.88-.5.5H.32c2.06,2.54,5.2,4.15,8.71,4.15,4.26,0,7.97-2.37,9.87-5.87h2.63c.48.01.73.26.73.76v39.14c0,.41.15.77.46,1.08.31.31.67.46,1.08.46h7.68c.41,0,.77-.15,1.08-.46.31-.31.46-.66.46-1.08V18.39c0-.5.25-.75.73-.76h22.74l1.68-10.74h-13.6Z"/>
    <path class="cls-2" d="M85.23,3.26c-2.95,0-5.56,1.43-7.2,3.62h-10.7l1.7,10.74h9c1.64,2.2,4.25,3.62,7.2,3.62,4.97,0,8.99-4.03,8.99-8.99s-4.03-8.99-8.99-8.99M85.23,17.18c-2.72,0-4.92-2.2-4.92-4.92s2.21-4.92,4.92-4.92,4.92,2.2,4.92,4.92-2.2,4.92-4.92,4.92"/>
  </g>
</svg>