<?xml version="1.0" encoding="UTF-8"?>
<svg id="Layer_4" data-name="Layer 4" xmlns="http://www.w3.org/2000/svg" viewBox="0 0 122.72 122.84">
  <defs>
    <style>
      .cls-1 {
        fill: #001d23;
      }
    </style>
  </defs>
  <path class="cls-1" d="M117.44,5.21C113.93,1.71,109.83-.05,105.16-.05h-24.41l-43.39,43.39c1.03,1.8,1.62,3.89,1.62,6.11,0,6.84-5.55,12.39-12.39,12.39s-12.39-5.55-12.39-12.39,5.55-12.39,12.39-12.39c1.89,0,3.67.43,5.27,1.19L70.16-.05H17.56C12.89-.05,8.8,1.71,5.29,5.21,1.79,8.72.03,12.81.03,17.49v87.66c0,4.68,1.76,8.77,5.26,12.27,3.51,3.51,7.6,5.26,12.27,5.26h24.67l41.81-41.81c-1.03-1.8-1.62-3.89-1.62-6.11,0-6.84,5.55-12.39,12.39-12.39s12.39,5.55,12.39,12.39-5.55,12.39-12.39,12.39c-1.89,0-3.67-.43-5.27-1.19l-36.72,36.72h52.34c4.67,0,8.76-1.75,12.27-5.26,3.5-3.51,5.26-7.59,5.26-12.27V17.49c0-4.67-1.76-8.77-5.26-12.27ZM98.75,41.5c-3.67,3.67-9.13,4.45-13.57,2.35l-42.13,42.12c2.09,4.44,1.32,9.9-2.35,13.57-3.09,3.09-7.46,4.13-11.41,3.13l5.9-5.9v-3.19s-5.49-5.49-5.49-5.49h-3.22s-5.86,5.86-5.86,5.86c-.97-3.94.07-8.27,3.14-11.35,3.83-3.83,9.61-4.52,14.14-2.07l41.83-41.83c-2.44-4.54-1.76-10.31,2.07-14.15,3.09-3.09,7.46-4.13,11.41-3.13l-5.9,5.9v3.19s5.49,5.49,5.49,5.49h3.22l5.86-5.86c.97,3.94-.07,8.27-3.14,11.35Z"/>
</svg>