<?xml version="1.0" encoding="UTF-8"?>
<svg id="Layer_4" data-name="Layer 4" xmlns="http://www.w3.org/2000/svg" viewBox="0 0 122.47 122.84">
  <defs>
    <style>
      .cls-1 {
        fill: #001d23;
      }
    </style>
  </defs>
  <path class="cls-1" d="M104.76.04H17.73C7.97.04.07,7.95.07,17.7v87.03c0,9.75,7.91,17.66,17.66,17.66h25.36v-31.04c-11.55-6.28-19.39-18.53-19.39-32.6,0-11.6,5.33-21.96,13.68-28.76h.03v23.67l1.66,1.66,6.2,6.2,1.66,1.66h27.76l1.66-1.66,6.14-6.14,1.66-1.66v-23.73h.05c8.34,6.8,13.68,17.15,13.68,28.76,0,14.05-7.82,26.27-19.34,32.56v31.07h26.23c9.75,0,17.66-7.91,17.66-17.66V17.7C122.42,7.95,114.51.04,104.76.04Z"/>
</svg>