<?xml version="1.0" encoding="UTF-8"?>
<svg id="Layer_4" data-name="Layer 4" xmlns="http://www.w3.org/2000/svg" viewBox="0 0 285.22 285.16">
  <defs>
    <style>
      .cls-1 {
        fill: #3b6a78;
      }
    </style>
  </defs>
  <path class="cls-1" d="M32.21,22.49h-3.44c.98,1.23,2.49,2.01,4.19,2.01s3.26-.84,4.24-2.11h20.55l11.01,11.01c.25,2.73,2.52,4.87,5.32,4.87,2.97,0,5.37-2.4,5.37-5.37s-2.4-5.37-5.37-5.37c-.64,0-1.24.13-1.8.33l-11.85-11.85h0s0-.02,0-.02h-23.11c-.98-1.35-2.55-2.24-4.34-2.24-1.69,0-3.19.78-4.18,2h3.43l1.36,1.36v4l-1.37,1.37ZM74.08,29.98c1.61,0,2.92,1.31,2.92,2.92s-1.31,2.92-2.92,2.92-2.92-1.31-2.92-2.92,1.31-2.92,2.92-2.92Z"/>
  <path class="cls-1" d="M118.47,261.7v-20.48l11.09-11.09c2.66-.32,4.73-2.56,4.73-5.3,0-2.97-2.4-5.37-5.37-5.37s-5.37,2.4-5.37,5.37c0,.67.14,1.31.36,1.9l-11.83,11.83h-.01s-.01.02-.01.02h.01v23.08c-1.33.98-2.2,2.54-2.2,4.31s.78,3.19,2,4.18v-3.43l1.36-1.36h4l1.37,1.37v3.44c1.23-.98,2.01-2.49,2.01-4.19s-.85-3.29-2.15-4.27ZM128.92,221.9c1.61,0,2.92,1.31,2.92,2.92s-1.31,2.92-2.92,2.92-2.92-1.31-2.92-2.92,1.31-2.92,2.92-2.92Z"/>
  <path class="cls-1" d="M249.11,183.75h-.06v27.38h.04,0s11.89,11.9,11.89,11.9c-.2.56-.33,1.16-.33,1.79,0,2.97,2.4,5.37,5.37,5.37s5.37-2.4,5.37-5.37c0-2.8-2.16-5.08-4.89-5.32l-11.05-11.05v-22.07l11.08-11.08c2.73-.26,4.87-2.52,4.87-5.32,0-2.97-2.4-5.37-5.37-5.37s-5.37,2.4-5.37,5.37c0,.64.13,1.24.33,1.81l-11.92,11.92.04.04ZM266.02,221.9c1.61,0,2.92,1.31,2.92,2.92s-1.31,2.92-2.92,2.92-2.92-1.31-2.92-2.92,1.31-2.92,2.92-2.92ZM266.02,167.07c1.61,0,2.92,1.31,2.92,2.92s-1.31,2.92-2.92,2.92-2.92-1.31-2.92-2.92,1.31-2.92,2.92-2.92Z"/>
  <path class="cls-1" d="M183.75,36.13h.03v-.03l11.88-11.88c.57.2,1.17.34,1.81.34,2.97,0,5.37-2.4,5.37-5.37s-2.4-5.37-5.37-5.37c-2.79,0-5.06,2.14-5.32,4.86l-11.05,11.05h-20.45c-.98-1.33-2.54-2.2-4.32-2.2-2.97,0-5.37,2.4-5.37,5.37s2.4,5.37,5.37,5.37c1.75,0,3.28-.85,4.26-2.14h23.15s0,0,0,0ZM197.47,16.27c1.61,0,2.92,1.31,2.92,2.92s-1.31,2.92-2.92,2.92-2.92-1.31-2.92-2.92,1.31-2.92,2.92-2.92ZM156.34,35.82c-1.61,0-2.92-1.31-2.92-2.92s1.31-2.92,2.92-2.92,2.92,1.31,2.92,2.92-1.31,2.92-2.92,2.92Z"/>
  <path class="cls-1" d="M212,82.45c-.27-.04-.54-.08-.82-.08-2.97,0-5.37,2.4-5.37,5.37s2.4,5.37,5.37,5.37,5.37-2.4,5.37-5.37c0-.24-.04-.48-.07-.71l7.7-7.7c.24.03.47.07.71.07,2.97,0,5.37-2.4,5.37-5.37s-2.4-5.37-5.37-5.37-5.37,2.4-5.37,5.37c0,.28.04.55.08.82l-7.6,7.6ZM211.18,90.65c-1.61,0-2.92-1.31-2.92-2.92s1.31-2.92,2.92-2.92,2.92,1.31,2.92,2.92-1.31,2.92-2.92,2.92ZM224.89,71.11c1.61,0,2.92,1.31,2.92,2.92s-1.31,2.92-2.92,2.92-2.92-1.31-2.92-2.92,1.31-2.92,2.92-2.92Z"/>
  <path class="cls-1" d="M224.48,178.37c-2.77.21-4.96,2.5-4.96,5.33,0,2.97,2.4,5.37,5.37,5.37s5.37-2.4,5.37-5.37c0-.61-.12-1.19-.31-1.74l11.91-11.91-.04-.04v-23.16c1.3-.98,2.16-2.52,2.16-4.28,0-2.97-2.4-5.37-5.37-5.37s-5.37,2.4-5.37,5.37c0,1.77.87,3.32,2.18,4.3v20.57l-10.93,10.93ZM224.89,186.61c-1.61,0-2.92-1.31-2.92-2.92s1.31-2.92,2.92-2.92,2.92,1.31,2.92,2.92-1.31,2.92-2.92,2.92ZM238.6,139.65c1.61,0,2.92,1.31,2.92,2.92s-1.31,2.92-2.92,2.92-2.92-1.31-2.92-2.92,1.31-2.92,2.92-2.92Z"/>
  <path class="cls-1" d="M208.03,170.06h.01s-.02.01-.02.01v23c-1.34.98-2.21,2.54-2.21,4.33,0,2.97,2.4,5.37,5.37,5.37,1.75,0,3.29-.85,4.27-2.14h18.89c.98,1.29,2.52,2.14,4.27,2.14,2.97,0,5.37-2.4,5.37-5.37s-2.4-5.37-5.37-5.37c-1.77,0-3.33.87-4.31,2.2h-18.8c-.3-.41-.66-.77-1.07-1.08v-20.43l11.99-11.99-.04-.04h.08l1.67-1.67v-25.86c1.3-.98,2.15-2.52,2.15-4.27s-.78-3.19-2-4.18v3.43l-1.36,1.36h-4l-1.37-1.37v-3.44c-1.23.98-2.01,2.49-2.01,4.19s.87,3.33,2.2,4.31v23.18l-13.69,13.69ZM238.6,194.48c1.61,0,2.92,1.31,2.92,2.92s-1.31,2.92-2.92,2.92-2.92-1.31-2.92-2.92,1.31-2.92,2.92-2.92ZM211.18,200.32c-1.61,0-2.92-1.31-2.92-2.92s1.31-2.92,2.92-2.92,2.92,1.31,2.92,2.92-1.31,2.92-2.92,2.92Z"/>
  <path class="cls-1" d="M255.43,50.96c1.35-.97,2.24-2.55,2.24-4.35,0-2.97-2.4-5.37-5.37-5.37s-5.37,2.4-5.37,5.37c0,1.73.83,3.25,2.1,4.23v20.57l-11.02,11.02c-2.69.29-4.79,2.54-4.79,5.31,0,2.97,2.4,5.37,5.37,5.37s5.37-2.4,5.37-5.37c0-.66-.14-1.28-.35-1.86l11.8-11.8h0s.02,0,.02,0v-23.1ZM238.6,90.65c-1.61,0-2.92-1.31-2.92-2.92s1.31-2.92,2.92-2.92,2.92,1.31,2.92,2.92-1.31,2.92-2.92,2.92ZM252.31,49.53c-1.61,0-2.92-1.31-2.92-2.92s1.31-2.92,2.92-2.92,2.92,1.31,2.92,2.92-1.31,2.92-2.92,2.92Z"/>
  <path class="cls-1" d="M85.06,186.91h25.88c.98,1.3,2.52,2.15,4.27,2.15,2.97,0,5.37-2.4,5.37-5.37s-2.4-5.37-5.37-5.37c-1.77,0-3.33.87-4.3,2.19h-23.17l-13.65-13.65-.03.03v-.05h-23.06c-.98-1.34-2.55-2.23-4.34-2.23-2.97,0-5.37,2.4-5.37,5.37s2.4,5.37,5.37,5.37c1.74,0,3.26-.84,4.24-2.12h20.51l11.87,11.87v.02l1.77,1.77ZM115.21,180.77c1.61,0,2.92,1.31,2.92,2.92s-1.31,2.92-2.92,2.92-2.92-1.31-2.92-2.92,1.31-2.92,2.92-2.92ZM46.66,172.91c-1.61,0-2.92-1.31-2.92-2.92s1.31-2.92,2.92-2.92,2.92,1.31,2.92,2.92-1.31,2.92-2.92,2.92Z"/>
  <path class="cls-1" d="M180.59,197.33h0v23.18c-1.33.98-2.2,2.54-2.2,4.32,0,2.97,2.4,5.37,5.37,5.37s5.37-2.4,5.37-5.37c0-1.75-.85-3.28-2.14-4.26v-20.57l13.06-13.06h0l.68-.68v-25.73c1.27-.98,2.11-2.51,2.11-4.24,0-2.97-2.4-5.37-5.37-5.37s-5.37,2.4-5.37,5.37c0,1.79.89,3.37,2.23,4.34v22.97l-13.73,13.73ZM183.76,227.74c-1.61,0-2.92-1.31-2.92-2.92s1.31-2.92,2.92-2.92,2.92,1.31,2.92,2.92-1.31,2.92-2.92,2.92ZM197.47,153.36c1.61,0,2.92,1.31,2.92,2.92s-1.31,2.92-2.92,2.92-2.92-1.31-2.92-2.92,1.31-2.92,2.92-2.92Z"/>
  <path class="cls-1" d="M194.34,74.01h-.01v23.09c-1.35.98-2.23,2.55-2.23,4.34,0,2.97,2.4,5.37,5.37,5.37s5.37-2.4,5.37-5.37c0-1.73-.83-3.26-2.11-4.24v-20.54l11.41-11.41h0l2.21-2.21v-25.84c1.33-.98,2.2-2.54,2.2-4.31,0-2.97-2.4-5.37-5.37-5.37s-5.37,2.4-5.37,5.37c0,1.75.85,3.29,2.14,4.27v23.23l-13.61,13.61ZM197.47,104.36c-1.61,0-2.92-1.31-2.92-2.92s1.31-2.92,2.92-2.92,2.92,1.31,2.92,2.92-1.31,2.92-2.92,2.92ZM211.18,29.98c1.61,0,2.92,1.31,2.92,2.92s-1.31,2.92-2.92,2.92-2.92-1.31-2.92-2.92,1.31-2.92,2.92-2.92Z"/>
  <path class="cls-1" d="M211.14,249l-11.89,11.89c-.56-.2-1.15-.33-1.78-.33-2.97,0-5.37,2.4-5.37,5.37s2.4,5.37,5.37,5.37c2.81,0,5.08-2.16,5.32-4.91l11.02-11.02h20.45c.97,1.36,2.56,2.25,4.36,2.25,1.69,0,3.19-.78,4.18-2h-3.43l-1.36-1.36v-4l1.37-1.37h3.44c-.98-1.23-2.49-2.01-4.19-2.01s-3.25.83-4.23,2.09h-23.25v.02ZM197.47,268.86c-1.61,0-2.92-1.31-2.92-2.92s1.31-2.92,2.92-2.92,2.92,1.31,2.92,2.92-1.31,2.92-2.92,2.92Z"/>
  <path class="cls-1" d="M13.87,32.9c0,2.97,2.4,5.37,5.37,5.37.28,0,.54-.04.81-.08l7.62,7.62c-.04.26-.08.53-.08.8,0,2.97,2.4,5.37,5.37,5.37s5.37-2.4,5.37-5.37-2.4-5.37-5.37-5.37c-.25,0-.49.04-.73.07l-7.68-7.68c.03-.24.07-.48.07-.73,0-1.76-.86-3.31-2.17-4.29V9.78c1.31-.98,2.18-2.53,2.18-4.29C24.61,2.52,22.21.12,19.24.12s-5.37,2.4-5.37,5.37c0,1.76.86,3.31,2.16,4.28v18.84c-1.31.98-2.17,2.53-2.17,4.29ZM32.95,43.69c1.61,0,2.92,1.31,2.92,2.92s-1.31,2.92-2.92,2.92-2.92-1.31-2.92-2.92,1.31-2.92,2.92-2.92ZM19.24,2.57c1.61,0,2.92,1.31,2.92,2.92s-1.31,2.92-2.92,2.92-2.92-1.31-2.92-2.92,1.31-2.92,2.92-2.92ZM19.24,29.98c1.61,0,2.92,1.31,2.92,2.92s-1.31,2.92-2.92,2.92-2.92-1.31-2.92-2.92,1.31-2.92,2.92-2.92Z"/>
  <path class="cls-1" d="M238.6,10.86c1.76,0,3.32-.86,4.29-2.18h18.83c.98,1.31,2.53,2.18,4.29,2.18.28,0,.54-.04.81-.08l7.62,7.62c-.04.26-.08.52-.08.79,0,2.97,2.4,5.37,5.37,5.37s5.37-2.4,5.37-5.37-2.4-5.37-5.37-5.37c-.25,0-.5.04-.74.07l-7.68-7.68c.03-.24.07-.48.07-.73,0-2.97-2.4-5.37-5.37-5.37-1.76,0-3.31.86-4.28,2.16h-18.85c-.98-1.31-2.53-2.16-4.28-2.16-2.97,0-5.37,2.4-5.37,5.37s2.4,5.37,5.37,5.37ZM279.74,16.27c1.61,0,2.92,1.31,2.92,2.92s-1.31,2.92-2.92,2.92-2.92-1.31-2.92-2.92,1.31-2.92,2.92-2.92ZM266.02,2.57c1.61,0,2.92,1.31,2.92,2.92s-1.31,2.92-2.92,2.92-2.92-1.31-2.92-2.92,1.31-2.92,2.92-2.92ZM238.6,2.57c1.61,0,2.92,1.31,2.92,2.92s-1.31,2.92-2.92,2.92-2.92-1.31-2.92-2.92,1.31-2.92,2.92-2.92Z"/>
  <path class="cls-1" d="M183.76,10.86c1.76,0,3.32-.86,4.29-2.18h18.83c.98,1.31,2.53,2.18,4.29,2.18,2.97,0,5.37-2.4,5.37-5.37S214.15.12,211.18.12c-1.76,0-3.31.86-4.28,2.16h-18.85c-.98-1.31-2.53-2.16-4.28-2.16-2.97,0-5.37,2.4-5.37,5.37s2.4,5.37,5.37,5.37ZM211.18,2.57c1.61,0,2.92,1.31,2.92,2.92s-1.31,2.92-2.92,2.92-2.92-1.31-2.92-2.92,1.31-2.92,2.92-2.92ZM183.76,2.57c1.61,0,2.92,1.31,2.92,2.92s-1.31,2.92-2.92,2.92-2.92-1.31-2.92-2.92,1.31-2.92,2.92-2.92Z"/>
  <path class="cls-1" d="M128.92,10.86c1.76,0,3.32-.86,4.29-2.18h18.83c.98,1.31,2.53,2.18,4.29,2.18,2.97,0,5.37-2.4,5.37-5.37S159.3.12,156.34.12c-1.76,0-3.31.86-4.28,2.16h-18.85c-.98-1.31-2.53-2.16-4.28-2.16-2.97,0-5.37,2.4-5.37,5.37s2.4,5.37,5.37,5.37ZM156.34,2.57c1.61,0,2.92,1.31,2.92,2.92s-1.31,2.92-2.92,2.92-2.92-1.31-2.92-2.92,1.31-2.92,2.92-2.92ZM128.92,2.57c1.61,0,2.92,1.31,2.92,2.92s-1.31,2.92-2.92,2.92-2.92-1.31-2.92-2.92,1.31-2.92,2.92-2.92Z"/>
  <path class="cls-1" d="M74.08,10.86c2.97,0,5.37-2.4,5.37-5.37S77.05.12,74.08.12s-5.37,2.4-5.37,5.37,2.4,5.37,5.37,5.37ZM74.08,2.57c1.61,0,2.92,1.31,2.92,2.92s-1.31,2.92-2.92,2.92-2.92-1.31-2.92-2.92,1.31-2.92,2.92-2.92Z"/>
  <path class="cls-1" d="M46.66,10.86c2.97,0,5.37-2.4,5.37-5.37S49.63.12,46.66.12s-5.37,2.4-5.37,5.37,2.4,5.37,5.37,5.37ZM46.66,2.57c1.61,0,2.92,1.31,2.92,2.92s-1.31,2.92-2.92,2.92-2.92-1.31-2.92-2.92,1.31-2.92,2.92-2.92Z"/>
  <path class="cls-1" d="M252.31,13.82c-2.97,0-5.37,2.4-5.37,5.37s2.4,5.37,5.37,5.37,5.37-2.4,5.37-5.37-2.4-5.37-5.37-5.37ZM252.31,22.11c-1.61,0-2.92-1.31-2.92-2.92s1.31-2.92,2.92-2.92,2.92,1.31,2.92,2.92-1.31,2.92-2.92,2.92Z"/>
  <path class="cls-1" d="M221.65,23.44v23.14l-.02.02.02.02v.03h.03l11.88,11.88c-.2.56-.33,1.15-.33,1.78,0,2.97,2.4,5.37,5.37,5.37s5.37-2.4,5.37-5.37c0-2.81-2.16-5.08-4.91-5.32l-11.02-11.02v-20.46c1.34-.98,2.22-2.54,2.22-4.33,0-2.97-2.4-5.37-5.37-5.37s-5.37,2.4-5.37,5.37c0,1.74.84,3.27,2.12,4.25ZM238.6,57.4c1.61,0,2.92,1.31,2.92,2.92s-1.31,2.92-2.92,2.92-2.92-1.31-2.92-2.92,1.31-2.92,2.92-2.92ZM224.89,16.27c1.61,0,2.92,1.31,2.92,2.92s-1.31,2.92-2.92,2.92-2.92-1.31-2.92-2.92,1.31-2.92,2.92-2.92Z"/>
  <path class="cls-1" d="M115.21,24.56c2.97,0,5.37-2.4,5.37-5.37s-2.4-5.37-5.37-5.37-5.37,2.4-5.37,5.37,2.4,5.37,5.37,5.37ZM115.21,16.27c1.61,0,2.92,1.31,2.92,2.92s-1.31,2.92-2.92,2.92-2.92-1.31-2.92-2.92,1.31-2.92,2.92-2.92Z"/>
  <path class="cls-1" d="M87.79,24.56c2.97,0,5.37-2.4,5.37-5.37s-2.4-5.37-5.37-5.37-5.37,2.4-5.37,5.37,2.4,5.37,5.37,5.37ZM87.79,16.27c1.61,0,2.92,1.31,2.92,2.92s-1.31,2.92-2.92,2.92-2.92-1.31-2.92-2.92,1.31-2.92,2.92-2.92Z"/>
  <path class="cls-1" d="M5.53,24.56c2.97,0,5.37-2.4,5.37-5.37s-2.4-5.37-5.37-5.37S.16,16.23.16,19.19s2.4,5.37,5.37,5.37ZM5.53,16.27c1.61,0,2.92,1.31,2.92,2.92s-1.31,2.92-2.92,2.92-2.92-1.31-2.92-2.92,1.31-2.92,2.92-2.92Z"/>
  <path class="cls-1" d="M27.58,74.03c0,2.97,2.4,5.37,5.37,5.37s5.37-2.4,5.37-5.37-2.4-5.37-5.37-5.37-5.37,2.4-5.37,5.37ZM35.87,74.03c0,1.61-1.31,2.92-2.92,2.92s-2.92-1.31-2.92-2.92,1.31-2.92,2.92-2.92,2.92,1.31,2.92,2.92Z"/>
  <path class="cls-1" d="M19.24,93.1c.22,0,.42-.04.63-.06l7.77,7.77c-.02.21-.06.42-.06.63,0,2.97,2.4,5.37,5.37,5.37s5.37-2.4,5.37-5.37-2.4-5.37-5.37-5.37c-.31,0-.61.04-.9.09l-7.53-7.53c.05-.29.09-.59.09-.9,0-2.97-2.4-5.37-5.37-5.37s-5.37,2.4-5.37,5.37,2.4,5.37,5.37,5.37ZM32.95,98.52c1.61,0,2.92,1.31,2.92,2.92s-1.31,2.92-2.92,2.92-2.92-1.31-2.92-2.92,1.31-2.92,2.92-2.92ZM19.24,84.81c1.61,0,2.92,1.31,2.92,2.92s-1.31,2.92-2.92,2.92-2.92-1.31-2.92-2.92,1.31-2.92,2.92-2.92Z"/>
  <path class="cls-1" d="M5.53,51.98c2.97,0,5.37-2.4,5.37-5.37s-2.4-5.37-5.37-5.37S.16,43.64.16,46.61s2.4,5.37,5.37,5.37ZM5.53,43.69c1.61,0,2.92,1.31,2.92,2.92s-1.31,2.92-2.92,2.92-2.92-1.31-2.92-2.92,1.31-2.92,2.92-2.92Z"/>
  <path class="cls-1" d="M19.24,65.69c1.73,0,3.25-.83,4.23-2.09h25.79l1.72-1.72h0s12.04-12.05,12.04-12.05h20.5c.98,1.3,2.52,2.15,4.27,2.15,2.97,0,5.37-2.4,5.37-5.37s-2.4-5.37-5.37-5.37c-1.77,0-3.33.87-4.31,2.19h-23.11s0,0,0,0h-.02v.02l-13.75,13.75h-23.01c-.97-1.36-2.56-2.25-4.35-2.25-2.97,0-5.37,2.4-5.37,5.37s2.4,5.37,5.37,5.37ZM87.79,43.69c1.61,0,2.92,1.31,2.92,2.92s-1.31,2.92-2.92,2.92-2.92-1.31-2.92-2.92,1.31-2.92,2.92-2.92ZM19.24,57.4c1.61,0,2.92,1.31,2.92,2.92s-1.31,2.92-2.92,2.92-2.92-1.31-2.92-2.92,1.31-2.92,2.92-2.92Z"/>
  <path class="cls-1" d="M.16,101.44c0,2.97,2.4,5.37,5.37,5.37s5.37-2.4,5.37-5.37c0-1.75-.85-3.3-2.16-4.28v-18.86c1.3-.98,2.16-2.52,2.16-4.28,0-2.97-2.4-5.37-5.37-5.37S.16,71.06.16,74.03c0,1.77.87,3.32,2.18,4.3v18.81c-1.32.98-2.18,2.53-2.18,4.3ZM5.53,71.11c1.61,0,2.92,1.31,2.92,2.92s-1.31,2.92-2.92,2.92-2.92-1.31-2.92-2.92,1.31-2.92,2.92-2.92ZM5.53,98.52c1.61,0,2.92,1.31,2.92,2.92s-1.31,2.92-2.92,2.92-2.92-1.31-2.92-2.92,1.31-2.92,2.92-2.92Z"/>
  <path class="cls-1" d="M41.29,32.9c0,2.97,2.4,5.37,5.37,5.37s5.37-2.4,5.37-5.37-2.4-5.37-5.37-5.37-5.37,2.4-5.37,5.37ZM49.58,32.9c0,1.61-1.31,2.92-2.92,2.92s-2.92-1.31-2.92-2.92,1.31-2.92,2.92-2.92,2.92,1.31,2.92,2.92Z"/>
  <path class="cls-1" d="M82.42,128.86c0,2.97,2.4,5.37,5.37,5.37s5.37-2.4,5.37-5.37c0-1.78-.87-3.34-2.21-4.32v-18.78c1.33-.98,2.21-2.54,2.21-4.32,0-2.97-2.4-5.37-5.37-5.37s-5.37,2.4-5.37,5.37c0,1.74.85,3.28,2.14,4.26v18.89c-1.29.98-2.14,2.52-2.14,4.26ZM87.79,98.52c1.61,0,2.92,1.31,2.92,2.92s-1.31,2.92-2.92,2.92-2.92-1.31-2.92-2.92,1.31-2.92,2.92-2.92ZM87.79,125.94c1.61,0,2.92,1.31,2.92,2.92s-1.31,2.92-2.92,2.92-2.92-1.31-2.92-2.92,1.31-2.92,2.92-2.92Z"/>
  <path class="cls-1" d="M60.37,150.91c-2.97,0-5.37,2.4-5.37,5.37s2.4,5.37,5.37,5.37c1.77,0,3.33-.87,4.31-2.2h18.8c.98,1.33,2.54,2.2,4.31,2.2,2.97,0,5.37-2.4,5.37-5.37s-2.4-5.37-5.37-5.37c-1.75,0-3.29.85-4.27,2.15h-18.88c-.98-1.3-2.52-2.15-4.27-2.15ZM60.37,159.2c-1.61,0-2.92-1.31-2.92-2.92s1.31-2.92,2.92-2.92,2.92,1.31,2.92,2.92-1.31,2.92-2.92,2.92ZM87.79,153.36c1.61,0,2.92,1.31,2.92,2.92s-1.31,2.92-2.92,2.92-2.92-1.31-2.92-2.92,1.31-2.92,2.92-2.92Z"/>
  <path class="cls-1" d="M5.53,134.23c2.97,0,5.37-2.4,5.37-5.37s-2.4-5.37-5.37-5.37-5.37,2.4-5.37,5.37,2.4,5.37,5.37,5.37ZM5.53,125.94c1.61,0,2.92,1.31,2.92,2.92s-1.31,2.92-2.92,2.92-2.92-1.31-2.92-2.92,1.31-2.92,2.92-2.92Z"/>
  <path class="cls-1" d="M19.24,147.94c2.78,0,5.04-2.12,5.31-4.82l11.03-11.03h22.19l11,11c.26,2.72,2.53,4.85,5.32,4.85,2.97,0,5.37-2.4,5.37-5.37s-2.4-5.37-5.37-5.37c-.64,0-1.25.13-1.82.34l-11.84-11.84h0s0,0,0,0h-27.48v.02h-.01s-11.85,11.84-11.85,11.84c-.58-.21-1.19-.34-1.84-.34-2.97,0-5.37,2.4-5.37,5.37s2.4,5.37,5.37,5.37ZM74.08,139.65c1.61,0,2.92,1.31,2.92,2.92s-1.31,2.92-2.92,2.92-2.92-1.31-2.92-2.92,1.31-2.92,2.92-2.92ZM19.24,139.65c1.61,0,2.92,1.31,2.92,2.92s-1.31,2.92-2.92,2.92-2.92-1.31-2.92-2.92,1.31-2.92,2.92-2.92Z"/>
  <path class="cls-1" d="M74.08,120.52c2.97,0,5.37-2.4,5.37-5.37,0-2.8-2.15-5.07-4.89-5.32l-11-11v-22.15l11.04-11.04c2.72-.26,4.85-2.53,4.85-5.32,0-2.97-2.4-5.37-5.37-5.37s-5.37,2.4-5.37,5.37c0,.64.13,1.25.34,1.82l-11.88,11.88h-.01s-.03.05-.03.05h.03v27.45h.03l11.85,11.85c-.2.56-.33,1.16-.33,1.79,0,2.97,2.4,5.37,5.37,5.37ZM74.08,112.23c1.61,0,2.92,1.31,2.92,2.92s-1.31,2.92-2.92,2.92-2.92-1.31-2.92-2.92,1.31-2.92,2.92-2.92ZM74.08,57.4c1.61,0,2.92,1.31,2.92,2.92s-1.31,2.92-2.92,2.92-2.92-1.31-2.92-2.92,1.31-2.92,2.92-2.92Z"/>
  <path class="cls-1" d="M19.24,120.52c1.8,0,3.38-.89,4.35-2.25h23.05v-.02h3.19v-26.21c1.32-.98,2.19-2.54,2.19-4.31,0-2.97-2.4-5.37-5.37-5.37s-5.37,2.4-5.37,5.37c0,1.75.85,3.29,2.15,4.27v19.87h-19.97c-.98-1.27-2.5-2.09-4.23-2.09-2.97,0-5.37,2.4-5.37,5.37s2.4,5.37,5.37,5.37ZM46.66,84.81c1.61,0,2.92,1.31,2.92,2.92s-1.31,2.92-2.92,2.92-2.92-1.31-2.92-2.92,1.31-2.92,2.92-2.92ZM19.24,112.23c1.61,0,2.92,1.31,2.92,2.92s-1.31,2.92-2.92,2.92-2.92-1.31-2.92-2.92,1.31-2.92,2.92-2.92Z"/>
  <path class="cls-1" d="M.16,183.69c0,2.97,2.4,5.37,5.37,5.37s5.37-2.4,5.37-5.37c0-1.75-.85-3.3-2.16-4.28v-18.86c1.3-.98,2.16-2.52,2.16-4.28,0-2.97-2.4-5.37-5.37-5.37s-5.37,2.4-5.37,5.37c0,1.77.87,3.32,2.18,4.3v18.81c-1.32.98-2.18,2.53-2.18,4.3ZM5.53,153.36c1.61,0,2.92,1.31,2.92,2.92s-1.31,2.92-2.92,2.92-2.92-1.31-2.92-2.92,1.31-2.92,2.92-2.92ZM5.53,180.77c1.61,0,2.92,1.31,2.92,2.92s-1.31,2.92-2.92,2.92-2.92-1.31-2.92-2.92,1.31-2.92,2.92-2.92Z"/>
  <path class="cls-1" d="M46.66,202.77c2.97,0,5.37-2.4,5.37-5.37s-2.4-5.37-5.37-5.37c-.28,0-.56.04-.83.08l-7.6-7.6c.04-.27.08-.54.08-.83,0-2.97-2.4-5.37-5.37-5.37s-5.37,2.4-5.37,5.37,2.4,5.37,5.37,5.37c.24,0,.48-.04.71-.07l7.7,7.7c-.03.23-.07.47-.07.71,0,2.97,2.4,5.37,5.37,5.37ZM46.66,194.48c1.61,0,2.92,1.31,2.92,2.92s-1.31,2.92-2.92,2.92-2.92-1.31-2.92-2.92,1.31-2.92,2.92-2.92ZM32.95,186.61c-1.61,0-2.92-1.31-2.92-2.92s1.31-2.92,2.92-2.92,2.92,1.31,2.92,2.92-1.31,2.92-2.92,2.92Z"/>
  <path class="cls-1" d="M22.43,193.11v-18.93c1.29-.98,2.14-2.52,2.14-4.26s-.78-3.19-2-4.18v3.43l-1.36,1.36h-4l-1.37-1.37v-3.44c-1.23.98-2.01,2.49-2.01,4.19,0,1.78.88,3.34,2.21,4.32v18.88c-1.31.98-2.17,2.53-2.17,4.29,0,2.97,2.4,5.37,5.37,5.37s5.37-2.4,5.37-5.37c0-1.76-.86-3.31-2.17-4.29ZM19.24,200.32c-1.61,0-2.92-1.31-2.92-2.92s1.31-2.92,2.92-2.92,2.92,1.31,2.92,2.92-1.31,2.92-2.92,2.92Z"/>
  <path class="cls-1" d="M32.95,150.91c-2.97,0-5.37,2.4-5.37,5.37s2.4,5.37,5.37,5.37,5.37-2.4,5.37-5.37c0-.28-.04-.55-.08-.82l7.6-7.6c.27.04.54.08.82.08,2.97,0,5.37-2.4,5.37-5.37s-2.4-5.37-5.37-5.37-5.37,2.4-5.37,5.37c0,.24.04.48.07.71l-7.7,7.7c-.24-.03-.47-.07-.71-.07ZM46.66,139.65c1.61,0,2.92,1.31,2.92,2.92s-1.31,2.92-2.92,2.92-2.92-1.31-2.92-2.92,1.31-2.92,2.92-2.92ZM35.87,156.28c0,1.61-1.31,2.92-2.92,2.92s-2.92-1.31-2.92-2.92,1.31-2.92,2.92-2.92,2.92,1.31,2.92,2.92Z"/>
  <path class="cls-1" d="M38.31,211.11c0-2.97-2.4-5.37-5.37-5.37s-5.37,2.4-5.37,5.37c0,1.7.81,3.2,2.05,4.19v19.04c-1.24.98-2.05,2.48-2.05,4.19s.81,3.2,2.05,4.19v19.04c-1.24.98-2.05,2.48-2.05,4.19,0,2.97,2.4,5.37,5.37,5.37s5.37-2.4,5.37-5.37c0-1.82-.91-3.42-2.29-4.39v-18.63c1.38-.97,2.29-2.57,2.29-4.39s-.91-3.42-2.29-4.39v-18.63c1.38-.97,2.29-2.57,2.29-4.39ZM32.95,268.86c-1.61,0-2.92-1.31-2.92-2.92,0-1.35.92-2.47,2.16-2.81h1.52c1.24.34,2.16,1.46,2.16,2.81,0,1.61-1.31,2.92-2.92,2.92ZM32.95,241.45c-1.61,0-2.92-1.31-2.92-2.92s1.31-2.92,2.92-2.92,2.92,1.31,2.92,2.92-1.31,2.92-2.92,2.92ZM32.95,214.03c-1.61,0-2.92-1.31-2.92-2.92s1.31-2.92,2.92-2.92,2.92,1.31,2.92,2.92-1.31,2.92-2.92,2.92Z"/>
  <path class="cls-1" d="M106.87,197.4c0-2.97-2.4-5.37-5.37-5.37s-5.37,2.4-5.37,5.37c0,1.73.83,3.25,2.11,4.24v73.78c-1.27.98-2.11,2.51-2.11,4.24,0,2.97,2.4,5.37,5.37,5.37s5.37-2.4,5.37-5.37c0-1.79-.89-3.37-2.23-4.34v-73.56c1.35-.98,2.23-2.55,2.23-4.34ZM101.5,282.57c-1.61,0-2.92-1.31-2.92-2.92s1.31-2.92,2.92-2.92,2.92,1.31,2.92,2.92-1.31,2.92-2.92,2.92ZM101.5,200.32c-1.61,0-2.92-1.31-2.92-2.92s1.31-2.92,2.92-2.92,2.92,1.31,2.92,2.92-1.31,2.92-2.92,2.92Z"/>
  <path class="cls-1" d="M115.21,216.48c1.76,0,3.3-.86,4.28-2.16h18.86c.98,1.3,2.52,2.16,4.28,2.16,2.97,0,5.37-2.4,5.37-5.37,0-1.75-.85-3.29-2.14-4.27v-20.49l11.06-11.06c1.51-.17,2.83-.95,3.7-2.1h18.85c.98,1.31,2.53,2.16,4.28,2.16,2.97,0,5.37-2.4,5.37-5.37s-2.4-5.37-5.37-5.37c-1.77,0-3.32.86-4.3,2.18h-18.83c-.98-1.32-2.53-2.18-4.3-2.18-2.97,0-5.37,2.4-5.37,5.37,0,.66.14,1.28.35,1.86l-11.85,11.85h-.01v23.1c-.43.32-.81.7-1.13,1.13h-18.82c-.98-1.32-2.53-2.18-4.3-2.18-2.97,0-5.37,2.4-5.37,5.37s2.4,5.37,5.37,5.37ZM183.76,167.07c1.61,0,2.92,1.31,2.92,2.92s-1.31,2.92-2.92,2.92-2.92-1.31-2.92-2.92,1.31-2.92,2.92-2.92ZM156.34,167.07c1.61,0,2.92,1.31,2.92,2.92s-1.31,2.92-2.92,2.92-2.92-1.31-2.92-2.92,1.31-2.92,2.92-2.92ZM142.63,208.19c1.61,0,2.92,1.31,2.92,2.92s-1.31,2.92-2.92,2.92-2.92-1.31-2.92-2.92,1.31-2.92,2.92-2.92ZM115.21,208.19c1.61,0,2.92,1.31,2.92,2.92s-1.31,2.92-2.92,2.92-2.92-1.31-2.92-2.92,1.31-2.92,2.92-2.92Z"/>
  <path class="cls-1" d="M87.79,205.74c-2.97,0-5.37,2.4-5.37,5.37,0,1.74.85,3.28,2.14,4.26v20.6l-10.94,10.94c-2.74.24-4.9,2.52-4.9,5.32,0,2.97,2.4,5.37,5.37,5.37s5.37-2.4,5.37-5.37c0-.63-.13-1.22-.33-1.78l11.85-11.85-.02-.02h0v-23.16c1.33-.98,2.21-2.54,2.21-4.32,0-2.97-2.4-5.37-5.37-5.37ZM74.08,255.15c-1.61,0-2.92-1.31-2.92-2.92s1.31-2.92,2.92-2.92,2.92,1.31,2.92,2.92-1.31,2.92-2.92,2.92ZM87.79,214.03c-1.61,0-2.92-1.31-2.92-2.92s1.31-2.92,2.92-2.92,2.92,1.31,2.92,2.92-1.31,2.92-2.92,2.92Z"/>
  <path class="cls-1" d="M5.53,216.48c2.97,0,5.37-2.4,5.37-5.37s-2.4-5.37-5.37-5.37-5.37,2.4-5.37,5.37,2.4,5.37,5.37,5.37ZM5.53,208.19c1.61,0,2.92,1.31,2.92,2.92s-1.31,2.92-2.92,2.92-2.92-1.31-2.92-2.92,1.31-2.92,2.92-2.92Z"/>
  <path class="cls-1" d="M19.24,219.45c-2.97,0-5.37,2.4-5.37,5.37,0,1.76.86,3.31,2.17,4.29v20.53l-10.98,10.98c-2.74.24-4.9,2.52-4.9,5.32,0,2.97,2.4,5.37,5.37,5.37s5.37-2.4,5.37-5.37c0-.63-.13-1.23-.33-1.79l11.85-11.85h0s.02,0,.02,0v-23.19c1.31-.98,2.17-2.53,2.17-4.29,0-2.97-2.4-5.37-5.37-5.37ZM5.53,268.86c-1.61,0-2.92-1.31-2.92-2.92s1.31-2.92,2.92-2.92,2.92,1.31,2.92,2.92-1.31,2.92-2.92,2.92ZM19.24,227.74c-1.61,0-2.92-1.31-2.92-2.92s1.31-2.92,2.92-2.92,2.92,1.31,2.92,2.92-1.31,2.92-2.92,2.92Z"/>
  <path class="cls-1" d="M5.53,243.9c2.97,0,5.37-2.4,5.37-5.37s-2.4-5.37-5.37-5.37-5.37,2.4-5.37,5.37,2.4,5.37,5.37,5.37ZM5.53,235.61c1.61,0,2.92,1.31,2.92,2.92s-1.31,2.92-2.92,2.92-2.92-1.31-2.92-2.92,1.31-2.92,2.92-2.92Z"/>
  <path class="cls-1" d="M49.83,247.93v-20.49l13.26-13.26h0s.47-.47.47-.47v-25.72c1.32-.98,2.18-2.53,2.18-4.3,0-2.97-2.4-5.37-5.37-5.37s-5.37,2.4-5.37,5.37c0,1.75.85,3.3,2.16,4.28v23.1l-13.74,13.74h.02v23.15c-1.3.98-2.15,2.52-2.15,4.27,0,2.97,2.4,5.37,5.37,5.37s5.37-2.4,5.37-5.37c0-1.77-.87-3.33-2.19-4.31ZM60.37,180.77c1.61,0,2.92,1.31,2.92,2.92s-1.31,2.92-2.92,2.92-2.92-1.31-2.92-2.92,1.31-2.92,2.92-2.92ZM46.66,255.15c-1.61,0-2.92-1.31-2.92-2.92s1.31-2.92,2.92-2.92,2.92,1.31,2.92,2.92-1.31,2.92-2.92,2.92Z"/>
  <path class="cls-1" d="M87.79,260.57c-2.97,0-5.37,2.4-5.37,5.37,0,.28.04.55.08.82l-7.6,7.6c-.27-.04-.54-.08-.82-.08-2.97,0-5.37,2.4-5.37,5.37s2.4,5.37,5.37,5.37,5.37-2.4,5.37-5.37c0-.24-.04-.48-.07-.71l7.7-7.7c.24.03.47.07.72.07,2.97,0,5.37-2.4,5.37-5.37s-2.4-5.37-5.37-5.37ZM74.08,282.57c-1.61,0-2.92-1.31-2.92-2.92s1.31-2.92,2.92-2.92,2.92,1.31,2.92,2.92-1.31,2.92-2.92,2.92ZM87.79,268.86c-1.61,0-2.92-1.31-2.92-2.92s1.31-2.92,2.92-2.92,2.92,1.31,2.92,2.92-1.31,2.92-2.92,2.92Z"/>
  <path class="cls-1" d="M63.55,261.64v-20.42l11.09-11.09c2.7-.28,4.81-2.54,4.81-5.31,0-1.82-.91-3.42-2.3-4.39v-18.63c1.38-.97,2.3-2.57,2.3-4.39,0-2.97-2.4-5.37-5.37-5.37s-5.37,2.4-5.37,5.37c0,1.7.81,3.2,2.05,4.19v19.05c-1.24.98-2.05,2.48-2.05,4.19,0,.65.13,1.27.35,1.85l-11.89,11.89h-.01s-.01.02-.01.02h.01v23.09c-1.3.98-2.16,2.52-2.16,4.28,0,2.97,2.4,5.37,5.37,5.37s5.37-2.4,5.37-5.37c0-1.77-.87-3.32-2.19-4.3ZM74.08,194.48c1.61,0,2.92,1.31,2.92,2.92s-1.31,2.92-2.92,2.92-2.92-1.31-2.92-2.92,1.31-2.92,2.92-2.92ZM74.08,221.9c1.61,0,2.92,1.31,2.92,2.92s-1.31,2.92-2.92,2.92-2.92-1.31-2.92-2.92,1.31-2.92,2.92-2.92ZM60.37,268.86c-1.61,0-2.92-1.31-2.92-2.92,0-1.35.92-2.47,2.16-2.81h1.51c1.24.33,2.16,1.46,2.16,2.81,0,1.61-1.31,2.92-2.92,2.92Z"/>
  <path class="cls-1" d="M46.66,274.28c-2.97,0-5.37,2.4-5.37,5.37s2.4,5.37,5.37,5.37,5.37-2.4,5.37-5.37-2.4-5.37-5.37-5.37ZM46.66,282.57c-1.61,0-2.92-1.31-2.92-2.92s1.31-2.92,2.92-2.92,2.92,1.31,2.92,2.92-1.31,2.92-2.92,2.92Z"/>
  <path class="cls-1" d="M19.24,274.28c-2.97,0-5.37,2.4-5.37,5.37s2.4,5.37,5.37,5.37,5.37-2.4,5.37-5.37-2.4-5.37-5.37-5.37ZM19.24,282.57c-1.61,0-2.92-1.31-2.92-2.92s1.31-2.92,2.92-2.92,2.92,1.31,2.92,2.92-1.31,2.92-2.92,2.92Z"/>
  <path class="cls-1" d="M211.18,274.28c-1.81,0-3.41.9-4.38,2.28h-18.66c-.34-.48-.76-.9-1.24-1.25v-18.73c1.35-.98,2.23-2.55,2.23-4.34,0-2.97-2.4-5.37-5.37-5.37s-5.37,2.4-5.37,5.37c0,1.73.83,3.26,2.11,4.24v18.94c-1.27.98-2.11,2.51-2.11,4.24,0,2.97,2.4,5.37,5.37,5.37,1.71,0,3.22-.82,4.2-2.06h19.02c.98,1.25,2.49,2.06,4.2,2.06,2.97,0,5.37-2.4,5.37-5.37s-2.4-5.37-5.37-5.37ZM183.76,282.57c-1.61,0-2.92-1.31-2.92-2.92s1.31-2.92,2.92-2.92,2.92,1.31,2.92,2.92-1.31,2.92-2.92,2.92ZM183.76,255.15c-1.61,0-2.92-1.31-2.92-2.92s1.31-2.92,2.92-2.92,2.92,1.31,2.92,2.92-1.31,2.92-2.92,2.92ZM211.18,282.57c-1.61,0-2.92-1.31-2.92-2.92s1.31-2.92,2.92-2.92,2.92,1.31,2.92,2.92-1.31,2.92-2.92,2.92Z"/>
  <path class="cls-1" d="M170.05,260.57c-2.97,0-5.37,2.4-5.37,5.37,0,.22.04.43.06.64l-7.77,7.77c-.21-.03-.42-.06-.64-.06-1.81,0-3.41.9-4.38,2.28h-18.66c-.97-1.37-2.57-2.28-4.38-2.28-2.97,0-5.37,2.4-5.37,5.37s2.4,5.37,5.37,5.37c1.71,0,3.22-.82,4.2-2.06h19.02c.98,1.25,2.49,2.06,4.2,2.06,2.97,0,5.37-2.4,5.37-5.37,0-.31-.04-.6-.09-.9l7.53-7.53c.29.05.59.09.9.09,2.97,0,5.37-2.4,5.37-5.37s-2.4-5.37-5.37-5.37ZM128.92,282.57c-1.61,0-2.92-1.31-2.92-2.92s1.31-2.92,2.92-2.92,2.92,1.31,2.92,2.92-1.31,2.92-2.92,2.92ZM156.34,282.57c-1.61,0-2.92-1.31-2.92-2.92s1.31-2.92,2.92-2.92,2.92,1.31,2.92,2.92-1.31,2.92-2.92,2.92ZM170.05,268.86c-1.61,0-2.92-1.31-2.92-2.92s1.31-2.92,2.92-2.92,2.92,1.31,2.92,2.92-1.31,2.92-2.92,2.92Z"/>
  <path class="cls-1" d="M170.05,243.9c1.74,0,3.26-.84,4.24-2.12h18.93c.98,1.28,2.51,2.12,4.24,2.12,2.97,0,5.37-2.4,5.37-5.37,0-1.73-.83-3.26-2.11-4.24v-18.94c1.27-.98,2.11-2.51,2.11-4.24,0-2.97-2.4-5.37-5.37-5.37s-5.37,2.4-5.37,5.37c0,1.79.89,3.37,2.23,4.34v18.73c-.46.33-.86.74-1.2,1.2h-18.75c-.98-1.34-2.55-2.22-4.33-2.22-2.97,0-5.37,2.4-5.37,5.37,0,.3.04.6.09.89l-7.54,7.54c-.29-.05-.58-.09-.89-.09-2.97,0-5.37,2.4-5.37,5.37s2.4,5.37,5.37,5.37,5.37-2.4,5.37-5.37c0-.22-.04-.43-.07-.65l7.76-7.76c.22.03.43.07.65.07ZM197.47,208.19c1.61,0,2.92,1.31,2.92,2.92s-1.31,2.92-2.92,2.92-2.92-1.31-2.92-2.92,1.31-2.92,2.92-2.92ZM197.47,235.61c1.61,0,2.92,1.31,2.92,2.92s-1.31,2.92-2.92,2.92-2.92-1.31-2.92-2.92,1.31-2.92,2.92-2.92ZM156.34,255.15c-1.61,0-2.92-1.31-2.92-2.92s1.31-2.92,2.92-2.92,2.92,1.31,2.92,2.92-1.31,2.92-2.92,2.92ZM167.13,238.53c0-1.61,1.31-2.92,2.92-2.92s2.92,1.31,2.92,2.92-1.31,2.92-2.92,2.92-2.92-1.31-2.92-2.92Z"/>
  <path class="cls-1" d="M156.34,230.19c2.97,0,5.37-2.4,5.37-5.37,0-1.78-.87-3.34-2.2-4.31v-18.79c1.33-.98,2.2-2.54,2.2-4.32,0-2.97-2.4-5.37-5.37-5.37s-5.37,2.4-5.37,5.37c0,1.75.85,3.28,2.14,4.26v18.89c-1.29.98-2.14,2.52-2.14,4.26,0,.29.04.58.09.86l-7.57,7.57c-.28-.05-.56-.09-.86-.09-2.97,0-5.37,2.4-5.37,5.37,0,1.77.87,3.34,2.2,4.31v18.79c-1.33.98-2.2,2.54-2.2,4.31,0,2.97,2.4,5.37,5.37,5.37s5.37-2.4,5.37-5.37c0-1.75-.85-3.29-2.14-4.27v-18.88c1.29-.98,2.14-2.52,2.14-4.27,0-.23-.04-.45-.07-.68l7.73-7.73c.22.03.44.07.68.07ZM142.63,268.86c-1.61,0-2.92-1.31-2.92-2.92,0-1.35.92-2.47,2.16-2.81h1.52c1.24.34,2.16,1.46,2.16,2.81,0,1.61-1.31,2.92-2.92,2.92ZM142.63,241.45c-1.61,0-2.92-1.31-2.92-2.92s1.31-2.92,2.92-2.92,2.92,1.31,2.92,2.92-1.31,2.92-2.92,2.92ZM156.34,194.48c1.61,0,2.92,1.31,2.92,2.92s-1.31,2.92-2.92,2.92-2.92-1.31-2.92-2.92,1.31-2.92,2.92-2.92ZM153.42,224.82c0-1.61,1.31-2.92,2.92-2.92s2.92,1.31,2.92,2.92-1.31,2.92-2.92,2.92-2.92-1.31-2.92-2.92Z"/>
  <path class="cls-1" d="M164.68,211.11c0,2.97,2.4,5.37,5.37,5.37s5.37-2.4,5.37-5.37c0-1.76-.86-3.31-2.17-4.29v-18.84c1.31-.98,2.17-2.53,2.17-4.29,0-2.97-2.4-5.37-5.37-5.37s-5.37,2.4-5.37,5.37c0,1.76.86,3.31,2.17,4.29v18.84c-1.31.98-2.17,2.53-2.17,4.29ZM170.05,180.77c1.61,0,2.92,1.31,2.92,2.92s-1.31,2.92-2.92,2.92-2.92-1.31-2.92-2.92,1.31-2.92,2.92-2.92ZM170.05,208.19c1.61,0,2.92,1.31,2.92,2.92s-1.31,2.92-2.92,2.92-2.92-1.31-2.92-2.92,1.31-2.92,2.92-2.92Z"/>
  <path class="cls-1" d="M128.92,246.87c-2.97,0-5.37,2.4-5.37,5.37s2.4,5.37,5.37,5.37,5.37-2.4,5.37-5.37-2.4-5.37-5.37-5.37ZM128.92,255.15c-1.61,0-2.92-1.31-2.92-2.92s1.31-2.92,2.92-2.92,2.92,1.31,2.92,2.92-1.31,2.92-2.92,2.92Z"/>
  <path class="cls-1" d="M230.26,238.53c0-2.97-2.4-5.37-5.37-5.37s-5.37,2.4-5.37,5.37,2.4,5.37,5.37,5.37,5.37-2.4,5.37-5.37ZM221.97,238.53c0-1.61,1.31-2.92,2.92-2.92s2.92,1.31,2.92,2.92-1.31,2.92-2.92,2.92-2.92-1.31-2.92-2.92Z"/>
  <path class="cls-1" d="M279.74,233.16c-1.81,0-3.4.9-4.37,2.27h-20.36l-12.43-12.43h0s-1.4-1.41-1.4-1.41h-25.73c-.98-1.29-2.52-2.14-4.27-2.14-2.97,0-5.37,2.4-5.37,5.37s2.4,5.37,5.37,5.37c1.77,0,3.33-.87,4.31-2.2h23.03l13.81,13.81v.02h23.2c.98,1.25,2.49,2.07,4.21,2.07,2.97,0,5.37-2.4,5.37-5.37s-2.4-5.37-5.37-5.37ZM211.18,227.74c-1.61,0-2.92-1.31-2.92-2.92s1.31-2.92,2.92-2.92,2.92,1.31,2.92,2.92-1.31,2.92-2.92,2.92ZM279.74,241.45c-1.61,0-2.92-1.31-2.92-2.92s1.31-2.92,2.92-2.92,2.92,1.31,2.92,2.92-1.31,2.92-2.92,2.92Z"/>
  <path class="cls-1" d="M266.02,246.87c-2.97,0-5.37,2.4-5.37,5.37,0,.27.04.53.08.79l-7.63,7.63c-.26-.04-.52-.08-.8-.08-1.79,0-3.36.88-4.33,2.22h-18.75c-.98-1.34-2.55-2.22-4.33-2.22-2.97,0-5.37,2.4-5.37,5.37s2.4,5.37,5.37,5.37c1.74,0,3.26-.84,4.25-2.12h18.93c.98,1.28,2.51,2.12,4.25,2.12,2.97,0,5.37-2.4,5.37-5.37,0-.25-.04-.5-.07-.74l7.67-7.67c.25.03.49.08.74.08,2.97,0,5.37-2.4,5.37-5.37s-2.4-5.37-5.37-5.37ZM224.89,268.86c-1.61,0-2.92-1.31-2.92-2.92s1.31-2.92,2.92-2.92,2.92,1.31,2.92,2.92-1.31,2.92-2.92,2.92ZM252.31,268.86c-1.61,0-2.92-1.31-2.92-2.92s1.31-2.92,2.92-2.92,2.92,1.31,2.92,2.92-1.31,2.92-2.92,2.92ZM266.02,255.15c-1.61,0-2.92-1.31-2.92-2.92s1.31-2.92,2.92-2.92,2.92,1.31,2.92,2.92-1.31,2.92-2.92,2.92Z"/>
  <path class="cls-1" d="M279.74,260.57c-2.97,0-5.37,2.4-5.37,5.37s2.4,5.37,5.37,5.37,5.37-2.4,5.37-5.37-2.4-5.37-5.37-5.37ZM279.74,268.86c-1.61,0-2.92-1.31-2.92-2.92s1.31-2.92,2.92-2.92,2.92,1.31,2.92,2.92-1.31,2.92-2.92,2.92Z"/>
  <path class="cls-1" d="M266.02,274.28c-1.81,0-3.41.9-4.38,2.28h-18.66c-.97-1.37-2.57-2.28-4.38-2.28-2.97,0-5.37,2.4-5.37,5.37s2.4,5.37,5.37,5.37c1.71,0,3.22-.82,4.2-2.06h19.02c.98,1.25,2.49,2.06,4.2,2.06,2.97,0,5.37-2.4,5.37-5.37s-2.4-5.37-5.37-5.37ZM238.6,282.57c-1.61,0-2.92-1.31-2.92-2.92s1.31-2.92,2.92-2.92,2.92,1.31,2.92,2.92-1.31,2.92-2.92,2.92ZM266.02,282.57c-1.61,0-2.92-1.31-2.92-2.92s1.31-2.92,2.92-2.92,2.92,1.31,2.92,2.92-1.31,2.92-2.92,2.92Z"/>
  <path class="cls-1" d="M266.02,192.03c-2.97,0-5.37,2.4-5.37,5.37s2.4,5.37,5.37,5.37,5.37-2.4,5.37-5.37-2.4-5.37-5.37-5.37ZM266.02,200.32c-1.61,0-2.92-1.31-2.92-2.92s1.31-2.92,2.92-2.92,2.92,1.31,2.92,2.92-1.31,2.92-2.92,2.92Z"/>
  <path class="cls-1" d="M219.52,211.11c0,2.97,2.4,5.37,5.37,5.37s5.37-2.4,5.37-5.37-2.4-5.37-5.37-5.37-5.37,2.4-5.37,5.37ZM227.81,211.11c0,1.61-1.31,2.92-2.92,2.92s-2.92-1.31-2.92-2.92,1.31-2.92,2.92-2.92,2.92,1.31,2.92,2.92Z"/>
  <path class="cls-1" d="M279.74,205.74c-2.97,0-5.37,2.4-5.37,5.37s2.4,5.37,5.37,5.37,5.37-2.4,5.37-5.37-2.4-5.37-5.37-5.37ZM279.74,214.03c-1.61,0-2.92-1.31-2.92-2.92s1.31-2.92,2.92-2.92,2.92,1.31,2.92,2.92-1.31,2.92-2.92,2.92Z"/>
  <path class="cls-1" d="M134.29,169.99c0-2.97-2.4-5.37-5.37-5.37s-5.37,2.4-5.37,5.37c0,1.78.88,3.35,2.22,4.33v18.76c-1.34.98-2.22,2.54-2.22,4.33,0,2.97,2.4,5.37,5.37,5.37s5.37-2.4,5.37-5.37c0-1.74-.84-3.27-2.13-4.25v-18.91c1.28-.98,2.13-2.51,2.13-4.25ZM128.92,200.32c-1.61,0-2.92-1.31-2.92-2.92s1.31-2.92,2.92-2.92,2.92,1.31,2.92,2.92-1.31,2.92-2.92,2.92ZM128.92,172.91c-1.61,0-2.92-1.31-2.92-2.92s1.31-2.92,2.92-2.92,2.92,1.31,2.92,2.92-1.31,2.92-2.92,2.92Z"/>
  <path class="cls-1" d="M128.92,147.94c2.97,0,5.37-2.4,5.37-5.37s-2.4-5.37-5.37-5.37c-.28,0-.56.04-.83.08l-7.59-7.59c.04-.27.08-.54.08-.83,0-2.97-2.4-5.37-5.37-5.37s-5.37,2.4-5.37,5.37,2.4,5.37,5.37,5.37c.24,0,.47-.04.71-.07l7.7,7.7c-.03.23-.07.46-.07.71,0,2.97,2.4,5.37,5.37,5.37ZM128.92,139.65c1.61,0,2.92,1.31,2.92,2.92s-1.31,2.92-2.92,2.92-2.92-1.31-2.92-2.92,1.31-2.92,2.92-2.92ZM115.21,131.78c-1.61,0-2.92-1.31-2.92-2.92s1.31-2.92,2.92-2.92,2.92,1.31,2.92,2.92-1.31,2.92-2.92,2.92Z"/>
  <path class="cls-1" d="M101.5,147.94c2.97,0,5.37-2.4,5.37-5.37,0-1.79-.88-3.36-2.22-4.33v-20.47l11-11c2.76-.22,4.94-2.51,4.94-5.33,0-2.97-2.4-5.37-5.37-5.37s-5.37,2.4-5.37,5.37c0,.62.13,1.21.32,1.76l-11.9,11.9h-.01v23.22c-1.28.98-2.12,2.51-2.12,4.25,0,2.97,2.4,5.37,5.37,5.37ZM115.21,98.52c1.61,0,2.92,1.31,2.92,2.92s-1.31,2.92-2.92,2.92-2.92-1.31-2.92-2.92,1.31-2.92,2.92-2.92ZM101.5,139.65c1.61,0,2.92,1.31,2.92,2.92s-1.31,2.92-2.92,2.92-2.92-1.31-2.92-2.92,1.31-2.92,2.92-2.92Z"/>
  <path class="cls-1" d="M101.5,175.35c2.97,0,5.37-2.4,5.37-5.37,0-.27-.04-.53-.08-.78l7.64-7.64c.26.04.52.08.78.08,1.77,0,3.33-.87,4.31-2.2h18.76c.98,1.34,2.55,2.23,4.34,2.23,1.69,0,3.19-.78,4.18-2h-3.43l-1.36-1.36v-4l1.37-1.37h3.44c-.98-1.23-2.49-2.01-4.19-2.01s-3.27.84-4.25,2.12h-18.89c-.98-1.3-2.52-2.15-4.27-2.15-2.97,0-5.37,2.4-5.37,5.37,0,.26.04.5.08.75l-7.66,7.66c-.25-.04-.5-.08-.75-.08-2.97,0-5.37,2.4-5.37,5.37s2.4,5.37,5.37,5.37ZM115.21,153.36c1.61,0,2.92,1.31,2.92,2.92s-1.31,2.92-2.92,2.92-2.92-1.31-2.92-2.92,1.31-2.92,2.92-2.92ZM101.5,167.07c1.61,0,2.92,1.31,2.92,2.92s-1.31,2.92-2.92,2.92-2.92-1.31-2.92-2.92,1.31-2.92,2.92-2.92Z"/>
  <path class="cls-1" d="M197.47,123.49c-1.79,0-3.36.88-4.33,2.22h-23.11s0,0,0,0h0s-11.83,11.83-11.83,11.83c-.58-.21-1.2-.35-1.85-.35-2.97,0-5.37,2.4-5.37,5.37s2.4,5.37,5.37,5.37c2.77,0,5.03-2.11,5.31-4.8l11.02-11.02h20.55c.98,1.28,2.51,2.12,4.25,2.12,2.97,0,5.37-2.4,5.37-5.37s-2.4-5.37-5.37-5.37ZM156.34,145.49c-1.61,0-2.92-1.31-2.92-2.92s1.31-2.92,2.92-2.92,2.92,1.31,2.92,2.92-1.31,2.92-2.92,2.92ZM197.47,131.78c-1.61,0-2.92-1.31-2.92-2.92s1.31-2.92,2.92-2.92,2.92,1.31,2.92,2.92-1.31,2.92-2.92,2.92Z"/>
  <path class="cls-1" d="M137.26,128.86c0,2.97,2.4,5.37,5.37,5.37s5.37-2.4,5.37-5.37-2.4-5.37-5.37-5.37-5.37,2.4-5.37,5.37ZM145.55,128.86c0,1.61-1.31,2.92-2.92,2.92s-2.92-1.31-2.92-2.92,1.31-2.92,2.92-2.92,2.92,1.31,2.92,2.92Z"/>
  <path class="cls-1" d="M211.18,137.2c-2.97,0-5.37,2.4-5.37,5.37s2.4,5.37,5.37,5.37,5.37-2.4,5.37-5.37-2.4-5.37-5.37-5.37ZM211.18,145.49c-1.61,0-2.92-1.31-2.92-2.92s1.31-2.92,2.92-2.92,2.92,1.31,2.92,2.92-1.31,2.92-2.92,2.92Z"/>
  <path class="cls-1" d="M183.76,147.94c2.97,0,5.37-2.4,5.37-5.37s-2.4-5.37-5.37-5.37-5.37,2.4-5.37,5.37c0,.25.04.49.07.74l-7.68,7.68c-.24-.03-.49-.07-.74-.07-2.97,0-5.37,2.4-5.37,5.37s2.4,5.37,5.37,5.37,5.37-2.4,5.37-5.37c0-.27-.04-.53-.08-.8l7.62-7.62c.26.04.52.08.8.08ZM170.05,159.2c-1.61,0-2.92-1.31-2.92-2.92s1.31-2.92,2.92-2.92,2.92,1.31,2.92,2.92-1.31,2.92-2.92,2.92ZM180.84,142.57c0-1.61,1.31-2.92,2.92-2.92s2.92,1.31,2.92,2.92-1.31,2.92-2.92,2.92-2.92-1.31-2.92-2.92Z"/>
  <path class="cls-1" d="M266.02,147.94c2.97,0,5.37-2.4,5.37-5.37s-2.4-5.37-5.37-5.37-5.37,2.4-5.37,5.37,2.4,5.37,5.37,5.37ZM266.02,139.65c1.61,0,2.92,1.31,2.92,2.92s-1.31,2.92-2.92,2.92-2.92-1.31-2.92-2.92,1.31-2.92,2.92-2.92Z"/>
  <path class="cls-1" d="M285.11,156.28c0-2.97-2.4-5.37-5.37-5.37s-5.37,2.4-5.37,5.37c0,1.8.89,3.38,2.25,4.35h0v18.71c-1.35.97-2.24,2.55-2.24,4.35,0,2.97,2.4,5.37,5.37,5.37s5.37-2.4,5.37-5.37c0-1.73-.83-3.25-2.1-4.23v-18.83h-.15c1.36-.97,2.25-2.56,2.25-4.35ZM279.74,186.61c-1.61,0-2.92-1.31-2.92-2.92s1.31-2.92,2.92-2.92,2.92,1.31,2.92,2.92-1.31,2.92-2.92,2.92ZM279.74,159.2c-1.61,0-2.92-1.31-2.92-2.92s1.31-2.92,2.92-2.92,2.92,1.31,2.92,2.92-1.31,2.92-2.92,2.92Z"/>
  <path class="cls-1" d="M279.74,123.49c-.28,0-.55.04-.81.08l-6.43-6.43-6.69-6.69-8.21-8.21c.04-.26.08-.53.08-.8,0-2.97-2.4-5.37-5.37-5.37-1.8,0-3.38.89-4.35,2.25h-18.71c-.97-1.36-2.56-2.25-4.35-2.25-2.97,0-5.37,2.4-5.37,5.37s2.4,5.37,5.37,5.37c1.72,0,3.24-.83,4.22-2.09h18.97c.98,1.26,2.5,2.09,4.22,2.09.25,0,.49-.04.73-.07l15.06,15.06,1.97,1.97h0l.25.25,4.11,4.11c-.03.24-.07.47-.07.72,0,2.97,2.4,5.37,5.37,5.37s5.37-2.4,5.37-5.37-2.4-5.37-5.37-5.37ZM224.89,104.36c-1.61,0-2.92-1.31-2.92-2.92s1.31-2.92,2.92-2.92,2.92,1.31,2.92,2.92-1.31,2.92-2.92,2.92ZM252.31,104.36c-1.61,0-2.92-1.31-2.92-2.92s1.31-2.92,2.92-2.92,2.92,1.31,2.92,2.92-1.31,2.92-2.92,2.92ZM279.74,131.78c-1.61,0-2.92-1.31-2.92-2.92s1.31-2.92,2.92-2.92,2.92,1.31,2.92,2.92-1.31,2.92-2.92,2.92Z"/>
  <path class="cls-1" d="M238.6,109.78c-2.97,0-5.37,2.4-5.37,5.37,0,2.75,2.08,4.99,4.74,5.31l11.04,11.04v20.57c-1.25.98-2.07,2.49-2.07,4.21,0,2.97,2.4,5.37,5.37,5.37s5.37-2.4,5.37-5.37c0-1.81-.9-3.4-2.27-4.37v-23.07h-.01l-11.79-11.79c.22-.59.36-1.22.36-1.89,0-2.97-2.4-5.37-5.37-5.37ZM238.6,118.07c-1.61,0-2.92-1.31-2.92-2.92s1.31-2.92,2.92-2.92,2.92,1.31,2.92,2.92-1.31,2.92-2.92,2.92ZM252.31,153.36c1.61,0,2.92,1.31,2.92,2.92s-1.31,2.92-2.92,2.92-2.92-1.31-2.92-2.92,1.31-2.92,2.92-2.92Z"/>
  <path class="cls-1" d="M285.11,74.03c0-2.97-2.4-5.37-5.37-5.37s-5.37,2.4-5.37,5.37c0,1.8.89,3.38,2.24,4.35v18.72c-1.35.97-2.24,2.55-2.24,4.35,0,2.97,2.4,5.37,5.37,5.37s5.37-2.4,5.37-5.37c0-1.73-.83-3.25-2.1-4.23v-18.96c1.27-.98,2.1-2.5,2.1-4.23ZM279.74,104.36c-1.61,0-2.92-1.31-2.92-2.92s1.31-2.92,2.92-2.92,2.92,1.31,2.92,2.92-1.31,2.92-2.92,2.92ZM279.74,76.95c-1.61,0-2.92-1.31-2.92-2.92s1.31-2.92,2.92-2.92,2.92,1.31,2.92,2.92-1.31,2.92-2.92,2.92Z"/>
  <path class="cls-1" d="M271.39,32.9c0-2.97-2.4-5.37-5.37-5.37s-5.37,2.4-5.37,5.37c0,1.81.9,3.4,2.27,4.37v46.11c-1.39.97-2.3,2.57-2.3,4.39,0,1.69.78,3.19,2,4.18v-3.43l1.36-1.36h4l1.37,1.37v3.44c1.23-.98,2.01-2.49,2.01-4.19s-.81-3.21-2.05-4.19v-46.47c1.25-.98,2.07-2.49,2.07-4.21ZM266.02,35.82c-1.61,0-2.92-1.31-2.92-2.92s1.31-2.92,2.92-2.92,2.92,1.31,2.92,2.92-1.31,2.92-2.92,2.92Z"/>
  <path class="cls-1" d="M238.6,38.27c2.97,0,5.37-2.4,5.37-5.37s-2.4-5.37-5.37-5.37-5.37,2.4-5.37,5.37,2.4,5.37,5.37,5.37ZM238.6,29.98c1.61,0,2.92,1.31,2.92,2.92s-1.31,2.92-2.92,2.92-2.92-1.31-2.92-2.92,1.31-2.92,2.92-2.92Z"/>
  <path class="cls-1" d="M279.74,41.24c-2.97,0-5.37,2.4-5.37,5.37s2.4,5.37,5.37,5.37,5.37-2.4,5.37-5.37-2.4-5.37-5.37-5.37ZM279.74,49.53c-1.61,0-2.92-1.31-2.92-2.92s1.31-2.92,2.92-2.92,2.92,1.31,2.92,2.92-1.31,2.92-2.92,2.92Z"/>
  <path class="cls-1" d="M170.05,79.39c2.97,0,5.37-2.4,5.37-5.37s-2.4-5.37-5.37-5.37c-1.78,0-3.34.88-4.32,2.21h-18.77c-.98-1.33-2.54-2.21-4.32-2.21s-3.34.88-4.32,2.21h-18.78c-.98-1.36-2.56-2.25-4.35-2.25-1.69,0-3.19.78-4.18,2h3.43l1.36,1.36v4l-1.37,1.37h-3.44c.98,1.23,2.49,2.01,4.19,2.01s3.25-.83,4.23-2.1h18.97c.98,1.29,2.51,2.13,4.26,2.13s3.28-.84,4.26-2.13h18.9c.98,1.29,2.51,2.13,4.26,2.13ZM170.05,71.11c1.61,0,2.92,1.31,2.92,2.92s-1.31,2.92-2.92,2.92-2.92-1.31-2.92-2.92,1.31-2.92,2.92-2.92ZM145.38,74.97c-.39,1.15-1.47,1.98-2.75,1.98-1.61,0-2.92-1.31-2.92-2.92s1.31-2.92,2.92-2.92c1.28,0,2.36.83,2.75,1.98v1.89Z"/>
  <path class="cls-1" d="M183.76,93.1c2.97,0,5.37-2.4,5.37-5.37,0-1.76-.86-3.3-2.16-4.28v-20.46l11.07-11.07c2.69-.29,4.8-2.54,4.8-5.31,0-2.97-2.4-5.37-5.37-5.37s-5.37,2.4-5.37,5.37c0,.65.13,1.27.35,1.85l-11.86,11.86h-.02v23.11c-1.31.98-2.18,2.53-2.18,4.3,0,2.97,2.4,5.37,5.37,5.37ZM197.47,43.69c1.61,0,2.92,1.31,2.92,2.92s-1.31,2.92-2.92,2.92-2.92-1.31-2.92-2.92,1.31-2.92,2.92-2.92ZM183.76,84.81c1.61,0,2.92,1.31,2.92,2.92s-1.31,2.92-2.92,2.92-2.92-1.31-2.92-2.92,1.31-2.92,2.92-2.92Z"/>
  <path class="cls-1" d="M150.97,87.73c0,2.97,2.4,5.37,5.37,5.37s5.37-2.4,5.37-5.37-2.4-5.37-5.37-5.37-5.37,2.4-5.37,5.37ZM159.25,87.73c0,1.61-1.31,2.92-2.92,2.92s-2.92-1.31-2.92-2.92,1.31-2.92,2.92-2.92,2.92,1.31,2.92,2.92Z"/>
  <path class="cls-1" d="M211.18,120.52c2.97,0,5.37-2.4,5.37-5.37s-2.4-5.37-5.37-5.37c-1.74,0-3.26.84-4.25,2.12h-73.77c-.98-1.28-2.51-2.12-4.25-2.12-2.97,0-5.37,2.4-5.37,5.37s2.4,5.37,5.37,5.37c1.79,0,3.36-.88,4.33-2.22h73.59c.98,1.34,2.55,2.22,4.33,2.22ZM211.18,112.23c1.61,0,2.92,1.31,2.92,2.92s-1.31,2.92-2.92,2.92-2.92-1.31-2.92-2.92,1.31-2.92,2.92-2.92ZM128.92,118.07c-1.61,0-2.92-1.31-2.92-2.92s1.31-2.92,2.92-2.92,2.92,1.31,2.92,2.92-1.31,2.92-2.92,2.92Z"/>
  <path class="cls-1" d="M87.79,79.39c2.97,0,5.37-2.4,5.37-5.37s-2.4-5.37-5.37-5.37-5.37,2.4-5.37,5.37,2.4,5.37,5.37,5.37ZM87.79,71.11c1.61,0,2.92,1.31,2.92,2.92s-1.31,2.92-2.92,2.92-2.92-1.31-2.92-2.92,1.31-2.92,2.92-2.92Z"/>
  <path class="cls-1" d="M101.5,93.1c1.74,0,3.27-.84,4.25-2.12h18.92c.98,1.28,2.51,2.12,4.25,2.12.23,0,.46-.04.69-.07l7.72,7.72c-.03.23-.07.45-.07.69,0,2.97,2.4,5.37,5.37,5.37,1.72,0,3.24-.83,4.22-2.09h18.97c.98,1.26,2.5,2.09,4.22,2.09,2.97,0,5.37-2.4,5.37-5.37s-2.4-5.37-5.37-5.37c-1.8,0-3.38.89-4.35,2.25h-18.71c-.97-1.36-2.56-2.25-4.35-2.25-.29,0-.57.04-.85.09l-7.58-7.58c.04-.28.09-.56.09-.85,0-2.97-2.4-5.37-5.37-5.37-1.78,0-3.35.88-4.33,2.22h-18.76c-.98-1.34-2.55-2.22-4.33-2.22-2.97,0-5.37,2.4-5.37,5.37s2.4,5.37,5.37,5.37ZM170.05,98.52c1.61,0,2.92,1.31,2.92,2.92s-1.31,2.92-2.92,2.92-2.92-1.31-2.92-2.92,1.31-2.92,2.92-2.92ZM142.63,98.52c1.61,0,2.92,1.31,2.92,2.92s-1.31,2.92-2.92,2.92-2.92-1.31-2.92-2.92,1.31-2.92,2.92-2.92ZM128.92,84.81c1.61,0,2.92,1.31,2.92,2.92s-1.31,2.92-2.92,2.92-2.92-1.31-2.92-2.92,1.31-2.92,2.92-2.92ZM101.5,84.81c1.61,0,2.92,1.31,2.92,2.92s-1.31,2.92-2.92,2.92-2.92-1.31-2.92-2.92,1.31-2.92,2.92-2.92Z"/>
  <path class="cls-1" d="M74.08,82.37c-2.97,0-5.37,2.4-5.37,5.37s2.4,5.37,5.37,5.37,5.37-2.4,5.37-5.37-2.4-5.37-5.37-5.37ZM74.08,90.65c-1.61,0-2.92-1.31-2.92-2.92s1.31-2.92,2.92-2.92,2.92,1.31,2.92,2.92-1.31,2.92-2.92,2.92Z"/>
  <path class="cls-1" d="M115.21,51.98c2.97,0,5.37-2.4,5.37-5.37,0-.23-.04-.45-.07-.67l6.58-6.58,6.69-6.69,8.18-8.18c.23.03.45.07.68.07,1.76,0,3.31-.86,4.29-2.17h18.84c.98,1.31,2.53,2.17,4.29,2.17,2.97,0,5.37-2.4,5.37-5.37s-2.4-5.37-5.37-5.37c-1.76,0-3.31.86-4.29,2.17h-18.84c-.98-1.31-2.53-2.17-4.29-2.17-2.97,0-5.37,2.4-5.37,5.37,0,.29.04.57.09.85l-14.93,14.93-1.97,1.97h0s-.25.25-.25.25l-4.13,4.13c-.28-.05-.57-.09-.86-.09-2.97,0-5.37,2.4-5.37,5.37s2.4,5.37,5.37,5.37ZM170.05,16.27c1.61,0,2.92,1.31,2.92,2.92s-1.31,2.92-2.92,2.92-2.92-1.31-2.92-2.92,1.31-2.92,2.92-2.92ZM142.63,16.27c1.61,0,2.92,1.31,2.92,2.92s-1.31,2.92-2.92,2.92-2.92-1.31-2.92-2.92,1.31-2.92,2.92-2.92ZM115.21,43.69c1.61,0,2.92,1.31,2.92,2.92s-1.31,2.92-2.92,2.92-2.92-1.31-2.92-2.92,1.31-2.92,2.92-2.92Z"/>
  <path class="cls-1" d="M161.7,60.32c0-2.97-2.4-5.37-5.37-5.37s-5.37,2.4-5.37,5.37,2.4,5.37,5.37,5.37,5.37-2.4,5.37-5.37ZM153.42,60.32c0-1.61,1.31-2.92,2.92-2.92s2.92,1.31,2.92,2.92-1.31,2.92-2.92,2.92-2.92-1.31-2.92-2.92Z"/>
  <path class="cls-1" d="M101.5,65.69c1.73,0,3.25-.83,4.23-2.09h25.76l1.81-1.81v-.02l11.93-11.93h20.54c.98,1.3,2.52,2.15,4.27,2.15,2.97,0,5.37-2.4,5.37-5.37s-2.4-5.37-5.37-5.37c-1.77,0-3.33.87-4.31,2.19h-23.14v.04l-.03-.03-13.75,13.75h-22.96c-.97-1.36-2.56-2.25-4.35-2.25-2.97,0-5.37,2.4-5.37,5.37s2.4,5.37,5.37,5.37ZM170.05,43.69c1.61,0,2.92,1.31,2.92,2.92s-1.31,2.92-2.92,2.92-2.92-1.31-2.92-2.92,1.31-2.92,2.92-2.92ZM101.5,57.4c1.61,0,2.92,1.31,2.92,2.92s-1.31,2.92-2.92,2.92-2.92-1.31-2.92-2.92,1.31-2.92,2.92-2.92Z"/>
  <path class="cls-1" d="M96.13,32.9c0,2.97,2.4,5.37,5.37,5.37s5.37-2.4,5.37-5.37c0-1.79-.88-3.36-2.22-4.33V9.82c1.34-.98,2.23-2.55,2.23-4.34,0-2.97-2.4-5.37-5.37-5.37s-5.37,2.4-5.37,5.37c0,1.73.84,3.26,2.11,4.24v18.92c-1.28.98-2.12,2.51-2.12,4.25ZM101.5,2.57c1.61,0,2.92,1.31,2.92,2.92s-1.31,2.92-2.92,2.92-2.92-1.31-2.92-2.92,1.31-2.92,2.92-2.92ZM101.5,29.98c1.61,0,2.92,1.31,2.92,2.92s-1.31,2.92-2.92,2.92-2.92-1.31-2.92-2.92,1.31-2.92,2.92-2.92Z"/>
</svg>