<?xml version="1.0" encoding="UTF-8"?>
<svg id="WORKING_LAYER" xmlns="http://www.w3.org/2000/svg" xmlns:xlink="http://www.w3.org/1999/xlink" viewBox="0 0 249.29 143.02">
  <defs>
    <style>
      .cls-1 {
        fill: none;
      }

      .cls-2 {
        fill: #001d23;
      }

      .cls-3 {
        clip-path: url(#clippath-1);
      }

      .cls-4 {
        fill: #3c6a79;
      }

      .cls-5 {
        clip-path: url(#clippath);
      }

      .cls-6 {
        fill: #cfc6bb;
      }
    </style>
    <clipPath id="clippath">
      <rect class="cls-1" x=".15" y=".41" width="247.97" height="141.67"/>
    </clipPath>
    <clipPath id="clippath-1">
      <rect class="cls-1" x=".15" y=".41" width="247.97" height="141.67"/>
    </clipPath>
  </defs>
  <g class="cls-5">
    <path class="cls-4" d="M11.13,116.89c-.28-.2-.45-.49-.5-.84L.58,66.22c-.15-.72-.23-1.23-.23-1.53,0-.77.49-1.15,1.46-1.15h7.36c.36,0,.68.1.96.31.28.2.45.49.5.84l6.67,35.34c.05.36.23.54.54.54h.46c.31,0,.48-.18.54-.54l5.52-35.34c.15-.77.64-1.15,1.46-1.15h6.13c.82,0,1.3.38,1.46,1.15l5.6,35.34c.05.36.23.54.54.54h.46c.31,0,.48-.18.54-.54l6.67-35.34c.05-.36.22-.64.5-.84.28-.2.6-.31.96-.31h7.36c.97,0,1.46.38,1.46,1.15,0,.31-.08.82-.23,1.53l-10.12,49.83c-.05.36-.22.64-.5.84-.28.2-.6.31-.96.31h-10.66c-.36,0-.68-.1-.96-.31-.28-.2-.45-.49-.5-.84l-4.22-26.45c-.05-.36-.21-.54-.46-.54s-.41.18-.46.54l-4.22,26.45c-.05.36-.22.64-.5.84-.28.2-.6.31-.96.31h-10.66c-.36,0-.68-.1-.96-.31"/>
    <path class="cls-4" d="M61.69,116.76c-.31-.31-.46-.66-.46-1.07v-50.6c0-.41.15-.77.46-1.07.31-.31.66-.46,1.07-.46h16.87c3.17,0,5.97.68,8.39,2.03,2.43,1.35,4.32,3.25,5.67,5.67,1.35,2.43,2.03,5.23,2.03,8.4,0,5.98-2.66,10.5-7.97,13.57-.56.31-.84.66-.84,1.07,0,.31.13.79.38,1.46l7.9,18.25c.26.61.38,1.1.38,1.46,0,.51-.18.93-.54,1.26-.36.33-.82.5-1.38.5h-7.67c-.51,0-.91-.1-1.19-.31-.28-.2-.53-.56-.73-1.07l-7.97-19.09c-.26-.66-.72-1-1.38-1h-1.99c-.51,0-.77.26-.77.77v19.17c0,.41-.15.77-.46,1.07-.31.31-.67.46-1.07.46h-7.67c-.41,0-.77-.15-1.07-.46M79.25,85.02c1.58,0,2.87-.5,3.87-1.49,1-1,1.49-2.29,1.49-3.87s-.5-2.88-1.49-3.87c-1-1-2.29-1.49-3.87-1.49h-6.52c-.51,0-.77.26-.77.77v9.2c0,.51.26.77.77.77h6.52Z"/>
    <path class="cls-4" d="M134.72,116.79c-.31-.31-.46-.66-.46-1.07v-50.6c0-.41.15-.77.46-1.07.31-.31.66-.46,1.07-.46h9.12c.97,0,1.61.46,1.92,1.38l10.5,31.44c.05.2.18.29.38.27.2-.03.31-.17.31-.42v-31.13c0-.41.15-.77.46-1.07.31-.31.66-.46,1.07-.46h7.67c.41,0,.77.15,1.07.46.31.31.46.66.46,1.07v50.6c0,.41-.15.77-.46,1.07-.31.31-.66.46-1.07.46h-9.05c-1.07,0-1.76-.43-2.07-1.3l-10.43-29.21c-.05-.2-.18-.29-.38-.27-.21.03-.31.17-.31.42v28.83c0,.41-.15.77-.46,1.07-.31.31-.67.46-1.07.46h-7.67c-.41,0-.77-.15-1.07-.46"/>
    <path class="cls-4" d="M181.22,115.34c-2.86-1.84-4.98-4.32-6.36-7.44-.92-2.04-1.51-4.38-1.76-7.01-.26-2.63-.38-6.12-.38-10.47s.13-7.83.38-10.46c.26-2.63.84-4.97,1.76-7.02,1.38-3.12,3.5-5.6,6.36-7.44,2.86-1.84,6.29-2.76,10.27-2.76,3.42,0,6.52.7,9.28,2.11,2.76,1.41,4.95,3.44,6.56,6.09,1.61,2.66,2.42,5.78,2.42,9.35,0,.41-.15.77-.46,1.07-.31.31-.66.46-1.07.46h-7.82c-.41,0-.79-.15-1.15-.46-.36-.31-.54-.66-.54-1.07,0-1.99-.67-3.62-1.99-4.87-1.33-1.25-3.07-1.88-5.21-1.88-3.37,0-5.62,1.23-6.75,3.68-.46.97-.75,2.59-.88,4.87-.13,2.28-.19,5.05-.19,8.32s.06,6.05.19,8.32c.13,2.28.42,3.9.88,4.87,1.12,2.45,3.37,3.68,6.75,3.68,2.15,0,3.88-.63,5.21-1.88,1.33-1.25,1.99-2.88,1.99-4.87,0-.41.18-.77.54-1.07.36-.31.74-.46,1.15-.46h7.82c.41,0,.77.15,1.07.46.31.31.46.67.46,1.07,0,3.53-.79,6.62-2.38,9.28-1.58,2.66-3.76,4.7-6.52,6.13-2.76,1.43-5.88,2.15-9.35,2.15-3.99,0-7.41-.92-10.27-2.76"/>
    <path class="cls-4" d="M214.07,116.79c-.31-.31-.46-.66-.46-1.07v-50.6c0-.41.15-.77.46-1.07.31-.31.66-.46,1.07-.46h7.67c.41,0,.77.15,1.07.46.31.31.46.66.46,1.07v19.17c0,.51.26.77.77.77h11.5c.51,0,.77-.26.77-.77v-19.17c0-.41.15-.77.46-1.07.31-.31.66-.46,1.07-.46h7.67c.41,0,.77.15,1.07.46.31.31.46.66.46,1.07v50.6c0,.41-.15.77-.46,1.07-.31.31-.66.46-1.07.46h-7.67c-.41,0-.77-.15-1.07-.46s-.46-.66-.46-1.07v-19.17c0-.51-.26-.77-.77-.77h-11.5c-.51,0-.77.26-.77.77v19.17c0,.41-.2.77-.61,1.07-.41.31-.84.46-1.3.46h-7.28c-.41,0-.77-.15-1.07-.46"/>
    <path class="cls-4" d="M99.93,116.72c-.31-.31-.46-.66-.46-1.07v-50.59c0-.41.15-.77.46-1.07.31-.31.66-.46,1.07-.46h27.84c.41-.01.77.14,1.07.45.31.31.46.67.46,1.07v7.67c0,.41-.15.77-.46,1.07-.31.31-.67.46-1.07.46h-17.87c-.51.01-.77.27-.77.78v9.26c0,.51.26.77.77.77h17.88c.41,0,.77.15,1.07.46.31.31.46.67.46,1.07v7.67c0,.41-.15.77-.46,1.07-.31.3-.67.46-1.07.46h-17.88c-.51,0-.77.26-.77.77v9.14c0,.51.26.77.77.77h17.88c.41,0,.77.15,1.07.46.31.31.46.67.46,1.08v7.66c0,.41-.15.77-.46,1.07-.31.31-.67.46-1.07.46h-27.84c-.41,0-.77-.15-1.07-.46"/>
    <path class="cls-6" d="M33.4,1.17H1.89c-.41,0-.77.15-1.08.46-.31.31-.46.67-.46,1.08v7.68c0,.41.15.77.46,1.08.31.31.67.46,1.08.46h9.61c.51,0,.77.26.77.77v40.73c0,.41.15.77.46,1.08.31.31.66.46,1.08.46h7.68c.41,0,.77-.15,1.08-.46.31-.31.46-.67.46-1.08V12.7c0-.51.26-.77.77-.77h9.61c.41,0,.77-.15,1.08-.46.31-.31.46-.67.46-1.08V2.71c0-.41-.15-.77-.46-1.08-.31-.31-.67-.46-1.08-.46"/>
    <path class="cls-6" d="M68.29,44.09h-18.16c-.51,0-.77-.26-.77-.77v-9.03c0-.51.26-.77.77-.77h7.41l1.88-1.88v-6.99l-1.86-1.86h-7.43c-.51,0-.77-.26-.77-.77v-9.37c0-.51.26-.77.77-.77h17.86c.41,0,.77-.15,1.07-.46.31-.31.46-.66.46-1.07V2.7c0-.41-.15-.77-.46-1.07-.31-.31-.67-.46-1.07-.46h-27.82c-.41,0-.77.15-1.07.46-.31.31-.46.66-.46,1.07v50.58c0,.41.15.77.46,1.07.31.31.66.46,1.07.46h28.13c.41,0,.77-.15,1.07-.46.31-.31.46-.66.46-1.07v-7.67c0-.41-.15-.77-.46-1.07-.31-.31-.66-.46-1.07-.46"/>
    <path class="cls-6" d="M108.62,36.26h-7.82c-.41,0-.79.15-1.15.46-.36.31-.54.67-.54,1.07,0,1.99-.67,4.03-1.99,5.28-1.33,1.25-3.07,1.88-5.21,1.88-3.37,0-5.62-1.23-6.75-3.68-.46-.97-.75-2.59-.88-4.87-.13-2.27-.19-5.05-.19-8.32s.06-6.04.19-8.32c.13-2.27.42-3.9.88-4.87,1.12-2.45,3.37-3.68,6.75-3.68,2.15,0,3.88.63,5.21,1.88,1.33,1.25,1.99,2.88,1.99,4.87,0,.41.18.77.54,1.07.36.31.74.46,1.15.46h7.82c.41,0,.77-.15,1.07-.46.31-.31.46-.66.46-1.07,0-3.58-.81-6.7-2.42-9.35-1.61-2.66-3.79-4.69-6.55-6.1-2.76-1.4-5.85-2.11-9.28-2.11-3.99,0-7.41.92-10.27,2.76-2.86,1.84-4.98,4.32-6.36,7.44-.92,2.04-1.51,4.38-1.76,7.01-.26,2.63-.38,6.12-.38,10.47s.13,7.83.38,10.47c.26,2.63.84,4.97,1.76,7.01,1.38,3.12,3.5,5.6,6.36,7.44,2.86,1.84,6.29,2.76,10.27,2.76,3.48,0,6.59-.72,9.35-2.15,2.76-1.43,4.93-3.48,6.52-6.13,1.58-2.66,2.38-6.16,2.38-9.69,0-.41-.15-.77-.46-1.07-.31-.31-.67-.46-1.07-.46"/>
    <path class="cls-6" d="M162.18,19.16c-2.95,0-5.56,1.43-7.2,3.62h-69.11c-.05,1.6-.07,3.35-.07,5.3s.03,3.81.08,5.44h27.93v19.87c0,.41.15.77.46,1.07s.66.46,1.07.46h7.28c.46,0,.89-.15,1.3-.46.41-.31.61-.66.61-1.07v-19.1c0-.51.25-.76.76-.77h11.51c.51,0,.76.26.76.77v19.1c0,.41.16.77.46,1.07.31.31.67.46,1.07.46h7.67c.41,0,.77-.15,1.07-.46s.46-.66.46-1.07v-19.87h6.68c1.64,2.2,4.25,3.62,7.2,3.62,4.97,0,8.99-4.03,8.99-8.99s-4.03-8.99-8.99-8.99M162.18,33.07c-2.72,0-4.92-2.2-4.92-4.92s2.21-4.92,4.92-4.92,4.92,2.2,4.92,4.92-2.2,4.92-4.92,4.92"/>
    <path class="cls-6" d="M148.3,2.78c0-.41-.15-.77-.46-1.07-.31-.31-.67-.46-1.07-.46h-7.67c-.41,0-.77.15-1.07.46-.31.31-.46.67-.46,1.07v18.29s10.73,0,10.73,0V2.78Z"/>
    <path class="cls-6" d="M124.53,2.78c0-.41-.15-.77-.46-1.07-.31-.31-.67-.46-1.07-.46h-7.67c-.41,0-.77.15-1.07.46s-.46.67-.46,1.07v18.29h10.73V2.78Z"/>
    <path class="cls-6" d="M71.48,22.78h-1.83c-1.91-3.49-5.61-5.86-9.86-5.86-3.52,0-6.65,1.62-8.71,4.14h0s6.48.01,6.48.01h.71l.5.5,1.86,1.86.5.5v8.41l-.5.5-1.88,1.88-.5.5h-7.17c2.06,2.54,5.2,4.15,8.71,4.15,4.26,0,7.97-2.37,9.87-5.87h1.83c-.05-1.64-.08-3.45-.08-5.44s.03-3.69.08-5.3"/>
  </g>
  <g class="cls-3">
    <path class="cls-2" d="M20.92,125.92l-4.16,15.93h-2.86l-2.66-9.55c-.06-.23-.14-.51-.22-.83-.08-.32-.16-.65-.23-.98-.08-.33-.14-.64-.2-.92-.05-.28-.09-.49-.11-.65-.02.15-.05.37-.1.64-.05.28-.11.58-.18.91-.07.33-.14.66-.22.98-.08.32-.15.61-.22.86l-2.62,9.54h-2.84L.15,125.92h2.63l2.3,9.34c.07.3.15.62.22.97.08.34.15.69.22,1.04.07.35.13.69.19,1.02.06.33.11.63.14.9.04-.28.08-.58.14-.92.06-.34.12-.68.19-1.04.07-.35.14-.69.22-1.02.08-.33.15-.62.23-.88l2.59-9.41h2.55l2.65,9.44c.08.27.16.57.23.91.08.33.15.68.22,1.03.07.35.14.69.2,1.01.06.33.11.62.14.88.05-.36.12-.76.2-1.22.08-.46.17-.92.27-1.39.1-.47.2-.91.31-1.31l2.29-9.34h2.64Z"/>
    <polygon class="cls-2" points="38 141.86 28.98 141.86 28.98 125.92 38 125.92 38 128.12 31.6 128.12 31.6 132.45 37.6 132.45 37.6 134.64 31.6 134.64 31.6 139.64 38 139.64 38 141.86"/>
    <path class="cls-2" d="M47.24,125.92h4.74c2.06,0,3.61.3,4.65.9,1.05.6,1.57,1.62,1.57,3.08,0,.61-.11,1.16-.32,1.65-.21.49-.52.89-.93,1.21-.41.32-.91.53-1.5.64v.11c.62.11,1.17.3,1.65.58.48.28.87.67,1.15,1.19.28.52.42,1.18.42,2.01,0,.97-.23,1.8-.69,2.49-.46.68-1.12,1.2-1.97,1.56-.85.36-1.87.53-3.04.53h-5.72v-15.93ZM49.86,132.5h2.51c1.18,0,2.01-.19,2.46-.58.46-.38.69-.95.69-1.69s-.27-1.3-.81-1.63c-.54-.33-1.4-.5-2.58-.5h-2.27v4.41ZM49.86,134.61v5.06h2.76c1.22,0,2.08-.24,2.57-.71.49-.47.74-1.11.74-1.92,0-.49-.11-.92-.33-1.29-.22-.36-.58-.64-1.08-.84-.5-.2-1.18-.3-2.03-.3h-2.63Z"/>
    <path class="cls-2" d="M88.56,137.52c0,.94-.23,1.76-.69,2.44-.46.68-1.12,1.21-1.98,1.57-.86.36-1.89.55-3.08.55-.58,0-1.14-.03-1.67-.1-.53-.06-1.03-.16-1.5-.29-.47-.13-.9-.28-1.28-.46v-2.46c.65.28,1.37.54,2.17.77.8.23,1.61.34,2.44.34.68,0,1.24-.09,1.68-.27.45-.18.78-.43,1-.76.22-.33.33-.72.33-1.16,0-.47-.13-.87-.38-1.2-.26-.33-.64-.63-1.15-.9-.51-.27-1.15-.56-1.92-.88-.52-.21-1.02-.45-1.5-.72-.48-.27-.9-.58-1.27-.95-.37-.36-.66-.79-.88-1.29-.21-.5-.32-1.08-.32-1.76,0-.9.22-1.67.65-2.31.43-.64,1.04-1.13,1.83-1.47.79-.34,1.71-.51,2.76-.51.84,0,1.62.09,2.36.26.74.17,1.46.42,2.17.74l-.83,2.1c-.66-.27-1.29-.48-1.9-.64-.61-.16-1.24-.24-1.88-.24-.55,0-1.02.08-1.41.25-.38.17-.68.4-.88.7-.2.3-.3.66-.3,1.07,0,.46.11.86.34,1.17.23.32.58.6,1.07.87.48.26,1.11.55,1.87.87.88.36,1.63.74,2.24,1.15.61.4,1.08.88,1.41,1.43.33.56.49,1.25.49,2.09"/>
    <path class="cls-2" d="M111.58,133.87c0,1.23-.15,2.34-.46,3.35-.31,1.01-.77,1.87-1.39,2.59-.62.72-1.39,1.28-2.32,1.67-.93.39-2.02.59-3.27.59s-2.37-.2-3.31-.59c-.93-.39-1.71-.95-2.32-1.68-.61-.73-1.07-1.59-1.38-2.61-.3-1.01-.46-2.13-.46-3.36,0-1.64.27-3.07.81-4.3.54-1.23,1.36-2.18,2.47-2.86,1.11-.68,2.51-1.02,4.2-1.02s3.03.34,4.13,1.01c1.1.68,1.92,1.63,2.47,2.85.55,1.22.82,2.67.82,4.33M99.42,133.87c0,1.23.17,2.29.5,3.19.33.9.85,1.59,1.54,2.07.69.48,1.58.73,2.67.73s1.99-.24,2.68-.73c.69-.48,1.2-1.17,1.53-2.07.33-.9.49-1.96.49-3.19,0-1.87-.37-3.33-1.12-4.39-.74-1.06-1.93-1.58-3.56-1.58-1.09,0-1.98.24-2.69.72-.7.48-1.22,1.17-1.55,2.05-.33.89-.5,1.96-.5,3.2"/>
    <polygon class="cls-2" points="120.81 141.86 120.81 125.92 123.42 125.92 123.42 139.63 130.19 139.63 130.19 141.86 120.81 141.86"/>
    <path class="cls-2" d="M151.25,125.92v10.31c0,1.11-.23,2.11-.7,2.99-.47.88-1.18,1.58-2.12,2.09-.95.51-2.13.77-3.56.77-2.04,0-3.59-.54-4.66-1.61-1.06-1.07-1.6-2.5-1.6-4.28v-10.27h2.62v10.04c0,1.33.31,2.31.94,2.94.63.63,1.56.95,2.8.95.86,0,1.56-.15,2.1-.45.54-.3.94-.74,1.2-1.33.26-.59.39-1.29.39-2.12v-10.03h2.61Z"/>
    <polygon class="cls-2" points="166.65 141.86 164.02 141.86 164.02 128.15 159.35 128.15 159.35 125.92 171.3 125.92 171.3 128.15 166.65 128.15 166.65 141.86"/>
    <rect class="cls-2" x="179.53" y="125.92" width="2.62" height="15.93"/>
    <path class="cls-2" d="M206.3,133.87c0,1.23-.16,2.34-.46,3.35-.31,1.01-.77,1.87-1.39,2.59-.62.72-1.39,1.28-2.32,1.67-.93.39-2.02.59-3.27.59s-2.38-.2-3.31-.59c-.93-.39-1.71-.95-2.32-1.68-.61-.73-1.07-1.59-1.38-2.61-.31-1.01-.46-2.13-.46-3.36,0-1.64.27-3.07.81-4.3.54-1.23,1.37-2.18,2.47-2.86,1.11-.68,2.51-1.02,4.2-1.02s3.03.34,4.13,1.01,1.92,1.63,2.47,2.85c.55,1.22.82,2.67.82,4.33M194.13,133.87c0,1.23.17,2.29.5,3.19.33.9.85,1.59,1.54,2.07.69.48,1.59.73,2.68.73s1.99-.24,2.68-.73c.69-.48,1.2-1.17,1.53-2.07.33-.9.49-1.96.49-3.19,0-1.87-.37-3.33-1.11-4.39-.75-1.06-1.93-1.58-3.56-1.58-1.09,0-1.99.24-2.69.72-.7.48-1.22,1.17-1.55,2.05-.33.89-.5,1.96-.5,3.2"/>
    <path class="cls-2" d="M228.82,141.86h-3.21l-7.8-12.72h-.1c.03.43.06.88.08,1.36.02.48.05.97.06,1.48.02.51.03,1.02.05,1.55v8.33h-2.38v-15.93h3.19l7.79,12.63h.08c-.01-.37-.03-.8-.05-1.28-.02-.48-.04-.98-.06-1.49-.02-.51-.03-1.01-.04-1.49v-8.38h2.38v15.93Z"/>
    <path class="cls-2" d="M248.01,137.52c0,.94-.23,1.76-.69,2.44-.46.68-1.12,1.21-1.98,1.57-.86.36-1.89.55-3.08.55-.58,0-1.14-.03-1.67-.1-.53-.06-1.03-.16-1.5-.29-.47-.13-.89-.28-1.28-.46v-2.46c.65.28,1.37.54,2.17.77.8.23,1.61.34,2.44.34.68,0,1.24-.09,1.69-.27.45-.18.78-.43,1-.76.22-.33.33-.72.33-1.16,0-.47-.13-.87-.38-1.2-.25-.33-.64-.63-1.15-.9-.51-.27-1.15-.56-1.92-.88-.52-.21-1.02-.45-1.5-.72-.48-.27-.9-.58-1.27-.95-.37-.36-.66-.79-.88-1.29-.21-.5-.32-1.08-.32-1.76,0-.9.22-1.67.65-2.31.43-.64,1.04-1.13,1.83-1.47.79-.34,1.71-.51,2.76-.51.83,0,1.62.09,2.36.26.74.17,1.46.42,2.17.74l-.83,2.1c-.65-.27-1.29-.48-1.9-.64-.61-.16-1.24-.24-1.88-.24-.55,0-1.02.08-1.41.25s-.68.4-.88.7c-.2.3-.3.66-.3,1.07,0,.46.11.86.34,1.17.23.32.58.6,1.07.87.48.26,1.11.55,1.87.87.88.36,1.62.74,2.24,1.15.61.4,1.08.88,1.41,1.43.33.56.49,1.25.49,2.09"/>
  </g>
</svg>