<?xml version="1.0" encoding="UTF-8"?>
<svg id="WORKING_LAYER" xmlns="http://www.w3.org/2000/svg" xmlns:xlink="http://www.w3.org/1999/xlink" viewBox="0 0 249.29 118.37">
  <defs>
    <style>
      .cls-1 {
        fill: none;
      }

      .cls-2 {
        fill: #3c6a79;
      }

      .cls-3 {
        clip-path: url(#clippath);
      }

      .cls-4 {
        fill: #cfc6bb;
      }
    </style>
    <clipPath id="clippath">
      <rect class="cls-1" x=".34" y=".41" width="247.76" height="117.69"/>
    </clipPath>
  </defs>
  <g class="cls-3">
    <path class="cls-2" d="M11.11,116.9c-.28-.2-.45-.49-.5-.84L.57,66.22c-.15-.72-.23-1.23-.23-1.53,0-.77.49-1.15,1.46-1.15h7.36c.36,0,.68.1.96.31.28.2.45.49.5.84l6.67,35.34c.05.36.23.54.54.54h.46c.31,0,.48-.18.54-.54l5.52-35.34c.15-.77.64-1.15,1.46-1.15h6.13c.82,0,1.3.38,1.46,1.15l5.6,35.34c.05.36.23.54.54.54h.46c.31,0,.48-.18.54-.54l6.67-35.34c.05-.36.22-.64.5-.84.28-.2.6-.31.96-.31h7.36c.97,0,1.46.38,1.46,1.15,0,.31-.08.82-.23,1.53l-10.12,49.83c-.05.36-.22.64-.5.84-.28.2-.6.31-.96.31h-10.66c-.36,0-.68-.1-.96-.31-.28-.2-.45-.49-.5-.84l-4.22-26.45c-.05-.36-.21-.54-.46-.54s-.41.18-.46.54l-4.22,26.45c-.05.36-.22.64-.5.84-.28.2-.6.31-.96.31h-10.66c-.36,0-.68-.1-.96-.31"/>
    <path class="cls-2" d="M61.68,116.77c-.31-.31-.46-.66-.46-1.07v-50.6c0-.41.15-.77.46-1.07.31-.31.66-.46,1.07-.46h16.87c3.17,0,5.97.68,8.39,2.03,2.43,1.35,4.32,3.25,5.67,5.67,1.35,2.43,2.03,5.23,2.03,8.4,0,5.98-2.66,10.5-7.97,13.57-.56.31-.84.66-.84,1.07,0,.31.13.79.38,1.46l7.9,18.25c.26.61.38,1.1.38,1.46,0,.51-.18.93-.54,1.26-.36.33-.82.5-1.38.5h-7.67c-.51,0-.91-.1-1.19-.31-.28-.2-.53-.56-.73-1.07l-7.97-19.09c-.26-.66-.72-1-1.38-1h-1.99c-.51,0-.77.26-.77.77v19.17c0,.41-.15.77-.46,1.07-.31.31-.67.46-1.07.46h-7.67c-.41,0-.77-.15-1.07-.46M79.23,85.03c1.58,0,2.87-.5,3.87-1.49,1-1,1.49-2.29,1.49-3.87s-.5-2.88-1.49-3.87c-1-1-2.29-1.49-3.87-1.49h-6.52c-.51,0-.77.26-.77.77v9.2c0,.51.26.77.77.77h6.52Z"/>
    <path class="cls-2" d="M134.7,116.8c-.31-.31-.46-.66-.46-1.07v-50.6c0-.41.15-.77.46-1.07.31-.31.66-.46,1.07-.46h9.12c.97,0,1.61.46,1.92,1.38l10.5,31.44c.05.2.18.29.38.27.2-.03.31-.17.31-.42v-31.13c0-.41.15-.77.46-1.07.31-.31.66-.46,1.07-.46h7.67c.41,0,.77.15,1.07.46.31.31.46.66.46,1.07v50.6c0,.41-.15.77-.46,1.07-.31.31-.66.46-1.07.46h-9.05c-1.07,0-1.76-.43-2.07-1.3l-10.43-29.21c-.05-.2-.18-.29-.38-.27-.2.03-.31.17-.31.42v28.83c0,.41-.15.77-.46,1.07-.31.31-.67.46-1.07.46h-7.67c-.41,0-.77-.15-1.07-.46"/>
    <path class="cls-2" d="M181.2,115.34c-2.86-1.84-4.98-4.32-6.36-7.44-.92-2.04-1.51-4.38-1.76-7.01-.26-2.63-.38-6.12-.38-10.47s.13-7.83.38-10.46c.26-2.63.84-4.97,1.76-7.02,1.38-3.12,3.5-5.6,6.36-7.44,2.86-1.84,6.29-2.76,10.27-2.76,3.42,0,6.52.7,9.28,2.11,2.76,1.41,4.95,3.44,6.56,6.09,1.61,2.66,2.42,5.78,2.42,9.35,0,.41-.15.77-.46,1.07-.31.31-.66.46-1.07.46h-7.82c-.41,0-.79-.15-1.15-.46-.36-.31-.54-.66-.54-1.07,0-1.99-.67-3.62-1.99-4.87-1.33-1.25-3.07-1.88-5.21-1.88-3.37,0-5.62,1.23-6.75,3.68-.46.97-.75,2.59-.88,4.87-.13,2.28-.19,5.05-.19,8.32s.06,6.05.19,8.32c.13,2.28.42,3.9.88,4.87,1.12,2.45,3.37,3.68,6.75,3.68,2.15,0,3.88-.63,5.21-1.88,1.33-1.25,1.99-2.88,1.99-4.87,0-.41.18-.77.54-1.07.36-.31.74-.46,1.15-.46h7.82c.41,0,.77.15,1.07.46.31.31.46.67.46,1.07,0,3.53-.79,6.62-2.38,9.28-1.58,2.66-3.76,4.7-6.52,6.13-2.76,1.43-5.88,2.15-9.35,2.15-3.99,0-7.41-.92-10.27-2.76"/>
    <path class="cls-2" d="M214.06,116.8c-.31-.31-.46-.66-.46-1.07v-50.6c0-.41.15-.77.46-1.07.31-.31.66-.46,1.07-.46h7.67c.41,0,.77.15,1.07.46.31.31.46.66.46,1.07v19.17c0,.51.26.77.77.77h11.5c.51,0,.77-.26.77-.77v-19.17c0-.41.15-.77.46-1.07.31-.31.66-.46,1.07-.46h7.67c.41,0,.77.15,1.07.46.31.31.46.66.46,1.07v50.6c0,.41-.15.77-.46,1.07-.31.31-.66.46-1.07.46h-7.67c-.41,0-.77-.15-1.07-.46s-.46-.66-.46-1.07v-19.17c0-.51-.26-.77-.77-.77h-11.5c-.51,0-.77.26-.77.77v19.17c0,.41-.2.77-.61,1.07-.41.31-.84.46-1.3.46h-7.28c-.41,0-.77-.15-1.07-.46"/>
    <path class="cls-2" d="M99.92,116.73c-.31-.31-.46-.66-.46-1.07v-50.59c0-.41.15-.77.46-1.07.31-.31.66-.46,1.07-.46h27.84c.41-.01.77.14,1.07.45.31.31.46.67.46,1.07v7.67c0,.41-.15.77-.46,1.07-.31.31-.67.46-1.07.46h-17.87c-.51.01-.77.27-.77.78v9.26c0,.51.26.77.77.77h17.88c.41,0,.77.15,1.07.46s.46.67.46,1.07v7.67c0,.41-.15.77-.46,1.07-.31.3-.67.46-1.07.46h-17.88c-.51,0-.77.26-.77.77v9.14c0,.51.26.77.77.77h17.88c.41,0,.77.15,1.07.46.31.31.46.67.46,1.08v7.66c0,.41-.15.77-.46,1.07-.31.31-.67.46-1.07.46h-27.84c-.41,0-.77-.15-1.07-.46"/>
    <path class="cls-4" d="M33.39,1.17H1.88c-.41,0-.77.15-1.08.46-.31.31-.46.67-.46,1.08v7.68c0,.41.15.77.46,1.08.31.31.67.46,1.08.46h9.61c.51,0,.77.26.77.77v40.73c0,.41.15.77.46,1.08.31.31.66.46,1.08.46h7.68c.41,0,.77-.15,1.08-.46.31-.31.46-.67.46-1.08V12.7c0-.51.26-.77.77-.77h9.61c.41,0,.77-.15,1.08-.46.31-.31.46-.67.46-1.08V2.71c0-.41-.15-.77-.46-1.08-.31-.31-.67-.46-1.08-.46"/>
    <path class="cls-4" d="M68.27,44.09h-18.16c-.51,0-.77-.26-.77-.77v-9.03c0-.51.26-.77.77-.77h7.41l1.88-1.88v-6.99l-1.86-1.86h-7.43c-.51,0-.77-.26-.77-.77v-9.37c0-.51.26-.77.77-.77h17.86c.41,0,.77-.15,1.07-.46.31-.31.46-.66.46-1.07V2.71c0-.41-.15-.77-.46-1.07-.31-.31-.67-.46-1.07-.46h-27.82c-.41,0-.77.15-1.07.46-.31.31-.46.66-.46,1.07v50.58c0,.41.15.77.46,1.07.31.31.66.46,1.07.46h28.13c.41,0,.77-.15,1.07-.46.31-.31.46-.66.46-1.07v-7.67c0-.41-.15-.77-.46-1.07s-.66-.46-1.07-.46"/>
    <path class="cls-4" d="M108.6,36.26h-7.82c-.41,0-.79.15-1.15.46-.36.31-.54.67-.54,1.07,0,1.99-.67,4.03-1.99,5.28-1.33,1.25-3.07,1.88-5.21,1.88-3.37,0-5.62-1.23-6.75-3.68-.46-.97-.75-2.59-.88-4.87-.13-2.27-.19-5.05-.19-8.32s.06-6.04.19-8.32c.13-2.27.42-3.9.88-4.87,1.12-2.45,3.37-3.68,6.75-3.68,2.15,0,3.88.63,5.21,1.88,1.33,1.25,1.99,2.88,1.99,4.87,0,.41.18.77.54,1.07.36.31.74.46,1.15.46h7.82c.41,0,.77-.15,1.07-.46.31-.31.46-.66.46-1.07,0-3.58-.81-6.7-2.42-9.35-1.61-2.66-3.79-4.69-6.55-6.1-2.76-1.4-5.85-2.11-9.28-2.11-3.99,0-7.41.92-10.27,2.76-2.86,1.84-4.98,4.32-6.36,7.44-.92,2.04-1.51,4.38-1.76,7.01-.26,2.63-.38,6.12-.38,10.47s.13,7.83.38,10.47c.26,2.63.84,4.97,1.76,7.01,1.38,3.12,3.5,5.6,6.36,7.44,2.86,1.84,6.29,2.76,10.27,2.76,3.48,0,6.59-.72,9.35-2.15,2.76-1.43,4.93-3.48,6.52-6.13,1.58-2.66,2.38-6.16,2.38-9.69,0-.41-.15-.77-.46-1.07-.31-.31-.67-.46-1.07-.46"/>
    <path class="cls-4" d="M162.17,19.16c-2.95,0-5.56,1.43-7.2,3.62h-69.11c-.05,1.6-.07,3.35-.07,5.3s.03,3.81.08,5.44h27.93v19.87c0,.41.15.77.46,1.07s.66.46,1.07.46h7.28c.46,0,.89-.15,1.3-.46.41-.31.61-.66.61-1.07v-19.1c0-.51.25-.76.76-.77h11.51c.51,0,.76.26.76.77v19.1c0,.41.16.77.46,1.07.31.31.67.46,1.07.46h7.67c.41,0,.77-.15,1.07-.46s.46-.66.46-1.07v-19.87h6.68c1.64,2.2,4.25,3.62,7.2,3.62,4.97,0,8.99-4.03,8.99-8.99s-4.03-8.99-8.99-8.99M162.17,33.08c-2.72,0-4.92-2.2-4.92-4.92s2.21-4.92,4.92-4.92,4.92,2.2,4.92,4.92-2.2,4.92-4.92,4.92"/>
    <path class="cls-4" d="M148.28,2.79c0-.41-.15-.77-.46-1.07-.31-.31-.67-.46-1.07-.46h-7.67c-.41,0-.77.15-1.07.46-.31.31-.46.67-.46,1.07v18.29s10.73,0,10.73,0V2.79Z"/>
    <path class="cls-4" d="M124.52,2.79c0-.41-.15-.77-.46-1.07-.31-.31-.67-.46-1.07-.46h-7.67c-.41,0-.77.15-1.07.46-.31.31-.46.67-.46,1.07v18.29h10.73V2.79Z"/>
    <path class="cls-4" d="M71.47,22.79h-1.83c-1.91-3.49-5.61-5.86-9.86-5.86-3.52,0-6.65,1.62-8.71,4.14h0s6.48.01,6.48.01h.71l.5.5,1.86,1.86.5.5v8.41l-.5.5-1.88,1.88-.5.5h-7.17c2.06,2.54,5.2,4.15,8.71,4.15,4.26,0,7.97-2.37,9.87-5.87h1.83c-.05-1.64-.08-3.45-.08-5.44s.03-3.69.08-5.3"/>
  </g>
</svg>