<?xml version="1.0" encoding="UTF-8"?>
<svg id="WORKING_LAYER" xmlns="http://www.w3.org/2000/svg" xmlns:xlink="http://www.w3.org/1999/xlink" viewBox="0 0 400 80.88">
  <defs>
    <style>
      .cls-1 {
        fill: none;
      }

      .cls-2 {
        fill: #3b6a78;
      }

      .cls-3 {
        fill: #001d23;
      }

      .cls-4 {
        clip-path: url(#clippath);
      }

      .cls-5 {
        fill: #cfc6bb;
      }
    </style>
    <clipPath id="clippath">
      <rect class="cls-1" x=".31" y=".25" width="399.47" height="79.49"/>
    </clipPath>
  </defs>
  <g class="cls-4">
    <path class="cls-2" d="M207.68,1.13h-7.36c-.36,0-.68.1-.96.31-.28.2-.45.49-.5.84l-6.67,35.34c-.05.36-.23.54-.54.54h-.46c-.31,0-.49-.18-.54-.54l-5.6-35.34c-.15-.77-.64-1.15-1.46-1.15h-6.13c-.82,0-1.3.38-1.46,1.15l-5.52,35.34c-.05.36-.23.54-.54.54h-.46c-.31,0-.49-.18-.54-.54l-6.67-35.34c-.05-.36-.22-.64-.5-.84-.28-.2-.6-.31-.96-.31h-7.36c-.97,0-1.46.38-1.46,1.15,0,.31.08.82.23,1.53l10.04,49.83c.05.36.22.64.5.84.28.2.6.31.96.31h10.66c.36,0,.68-.1.96-.31.28-.2.45-.49.5-.84l4.22-26.45c.05-.36.2-.54.46-.54s.41.18.46.54l4.22,26.45c.05.36.22.64.5.84.28.2.6.31.96.31h10.66c.36,0,.68-.1.96-.31.28-.2.45-.49.5-.84l10.12-49.83c.15-.72.23-1.23.23-1.53,0-.77-.49-1.15-1.46-1.15"/>
    <path class="cls-2" d="M239.43,30.83c5.32-3.07,7.97-7.59,7.97-13.57,0-3.17-.68-5.97-2.03-8.39-1.35-2.43-3.24-4.32-5.67-5.67-2.43-1.35-5.23-2.03-8.39-2.03h-16.87c-.41,0-.77.15-1.07.46-.31.31-.46.66-.46,1.07v50.6c0,.41.15.77.46,1.07.31.31.66.46,1.07.46h7.67c.41,0,.77-.15,1.07-.46.31-.31.46-.66.46-1.07v-19.17c0-.51.26-.77.77-.77h1.99c.66,0,1.12.33,1.38,1l7.97,19.09c.2.51.45.87.73,1.07.28.2.68.31,1.19.31h7.67c.56,0,1.02-.17,1.38-.5.36-.33.54-.75.54-1.26,0-.36-.13-.84-.38-1.46l-7.9-18.25c-.26-.66-.38-1.15-.38-1.46,0-.41.28-.77.84-1.07M234.79,21.13c-1,1-2.29,1.49-3.87,1.49h-6.52c-.51,0-.77-.26-.77-.77v-9.2c0-.51.26-.77.77-.77h6.52c1.58,0,2.87.5,3.87,1.49s1.49,2.29,1.49,3.87-.5,2.87-1.49,3.87"/>
    <path class="cls-2" d="M318.89,1.18h-7.67c-.41,0-.77.15-1.07.46-.31.31-.46.67-.46,1.07v31.13c0,.26-.1.4-.31.42-.2.03-.33-.06-.38-.27l-10.5-31.44c-.31-.92-.95-1.38-1.92-1.38h-9.12c-.41,0-.77.15-1.07.46-.31.31-.46.67-.46,1.07v50.6c0,.41.15.77.46,1.07s.66.46,1.07.46h7.67c.41,0,.77-.15,1.07-.46.31-.31.46-.66.46-1.07v-28.83c0-.26.1-.39.31-.42.2-.02.33.06.38.27l10.43,29.21c.31.87,1,1.3,2.07,1.3h9.05c.41,0,.77-.15,1.07-.46.31-.31.46-.66.46-1.07V2.72c0-.41-.15-.77-.46-1.07-.31-.31-.67-.46-1.07-.46"/>
    <path class="cls-2" d="M336.41,14.83c1.12-2.45,3.37-3.68,6.75-3.68,2.15,0,3.88.63,5.21,1.88,1.33,1.25,1.99,2.87,1.99,4.87,0,.41.18.77.54,1.07.36.31.74.46,1.15.46h7.82c.41,0,.77-.15,1.07-.46.31-.31.46-.66.46-1.07,0-3.58-.81-6.7-2.42-9.35-1.61-2.66-3.79-4.69-6.56-6.09-2.76-1.41-5.85-2.11-9.28-2.11-3.99,0-7.41.92-10.27,2.76-2.86,1.84-4.98,4.32-6.36,7.44-.92,2.04-1.51,4.38-1.76,7.01-.26,2.63-.38,6.12-.38,10.47s.13,7.83.38,10.46c.26,2.63.84,4.97,1.76,7.01,1.38,3.12,3.5,5.6,6.36,7.44,2.86,1.84,6.29,2.76,10.27,2.76,3.48,0,6.59-.72,9.35-2.15,2.76-1.43,4.93-3.48,6.52-6.13,1.58-2.66,2.38-5.75,2.38-9.28,0-.41-.15-.77-.46-1.07-.31-.31-.66-.46-1.07-.46h-7.82c-.41,0-.79.15-1.15.46-.36.31-.54.67-.54,1.07,0,1.99-.67,3.62-1.99,4.87-1.33,1.25-3.07,1.88-5.21,1.88-3.37,0-5.62-1.23-6.75-3.68-.46-.97-.75-2.59-.88-4.87-.13-2.27-.19-5.05-.19-8.32s.06-6.05.19-8.32c.13-2.27.42-3.9.88-4.87"/>
    <path class="cls-2" d="M399.32,1.64c-.31-.31-.67-.46-1.07-.46h-7.67c-.41,0-.77.15-1.07.46-.31.31-.46.67-.46,1.07v19.17c0,.51-.26.77-.77.77h-11.5c-.51,0-.77-.26-.77-.77V2.72c0-.41-.15-.77-.46-1.07-.31-.31-.67-.46-1.07-.46h-7.67c-.41,0-.77.15-1.07.46-.31.31-.46.67-.46,1.07v50.6c0,.41.15.77.46,1.07.31.31.66.46,1.07.46h7.28c.46,0,.89-.15,1.3-.46.41-.31.61-.66.61-1.07v-19.17c0-.51.26-.77.77-.77h11.5c.51,0,.77.26.77.77v19.17c0,.41.15.77.46,1.07.31.31.66.46,1.07.46h7.67c.41,0,.77-.15,1.07-.46.31-.31.46-.66.46-1.07V2.72c0-.41-.15-.77-.46-1.07"/>
    <path class="cls-2" d="M280.52,22.65h-17.88c-.51,0-.77-.26-.77-.77v-9.26c0-.51.26-.77.77-.77h17.87c.41-.01.77-.17,1.07-.47.31-.31.46-.66.46-1.07V2.65c0-.41-.15-.77-.46-1.07-.31-.31-.67-.46-1.07-.46l-27.84.02c-.41,0-.77.15-1.07.46-.31.31-.46.66-.46,1.07v50.59c0,.41.15.77.46,1.08.31.31.66.46,1.07.46h27.84c.41,0,.77-.15,1.07-.46.31-.31.46-.67.46-1.08v-7.66c0-.41-.15-.77-.46-1.07-.31-.3-.67-.46-1.07-.46h-17.88c-.51,0-.77-.26-.77-.77v-9.14c0-.51.26-.77.77-.77h17.88c.41,0,.77-.15,1.07-.46.31-.31.46-.66.46-1.07v-7.66c0-.41-.15-.77-.46-1.07-.31-.31-.67-.46-1.07-.46"/>
    <path class="cls-5" d="M33.36,1.01H1.85c-.41,0-.77.15-1.08.46-.31.31-.46.67-.46,1.08v7.68c0,.41.15.77.46,1.08.31.31.67.46,1.08.46h9.61c.51,0,.77.26.77.77v40.73c0,.41.15.77.46,1.08.31.31.66.46,1.08.46h7.68c.41,0,.77-.15,1.08-.46.31-.31.46-.67.46-1.08V12.54c0-.51.26-.77.77-.77h9.61c.41,0,.77-.15,1.08-.46.31-.31.46-.67.46-1.08V2.55c0-.41-.15-.77-.46-1.08-.31-.31-.67-.46-1.08-.46"/>
    <path class="cls-5" d="M68.24,43.93h-18.16c-.51,0-.77-.26-.77-.77v-9.03c0-.51.26-.77.77-.77h7.41l1.88-1.88v-6.99l-1.86-1.86h-7.43c-.51,0-.77-.26-.77-.77v-9.37c0-.51.26-.77.77-.77h17.86c.41,0,.77-.15,1.07-.46.31-.31.46-.66.46-1.07V2.55c0-.41-.15-.77-.46-1.07-.31-.31-.67-.46-1.07-.46h-27.82c-.41,0-.77.15-1.07.46-.31.31-.46.66-.46,1.07v50.58c0,.41.15.77.46,1.07.31.31.66.46,1.07.46h28.13c.41,0,.77-.15,1.07-.46.31-.31.46-.66.46-1.07v-7.67c0-.41-.15-.77-.46-1.07-.31-.31-.66-.46-1.07-.46"/>
    <path class="cls-5" d="M108.57,36.1h-7.82c-.41,0-.79.15-1.15.46-.36.31-.54.67-.54,1.07,0,1.99-.67,4.03-1.99,5.28-1.33,1.25-3.07,1.88-5.21,1.88-3.37,0-5.62-1.23-6.75-3.68-.46-.97-.75-2.59-.88-4.87-.13-2.27-.19-5.05-.19-8.32s.06-6.04.19-8.32c.13-2.27.42-3.9.88-4.87,1.12-2.45,3.37-3.68,6.75-3.68,2.15,0,3.88.63,5.21,1.88,1.33,1.25,1.99,2.88,1.99,4.87,0,.41.18.77.54,1.07.36.31.74.46,1.15.46h7.82c.41,0,.77-.15,1.07-.46.31-.31.46-.66.46-1.07,0-3.58-.81-6.7-2.42-9.35-1.61-2.66-3.79-4.69-6.55-6.1-2.76-1.4-5.85-2.11-9.28-2.11-3.99,0-7.41.92-10.27,2.76-2.86,1.84-4.98,4.32-6.36,7.44-.92,2.04-1.51,4.38-1.76,7.01-.26,2.63-.38,6.12-.38,10.47s.13,7.83.38,10.47c.26,2.63.84,4.97,1.76,7.01,1.38,3.12,3.5,5.6,6.36,7.44,2.86,1.84,6.29,2.76,10.27,2.76,3.48,0,6.59-.72,9.35-2.15,2.76-1.43,4.93-3.48,6.52-6.13,1.58-2.66,2.38-6.16,2.38-9.69,0-.41-.15-.77-.46-1.07-.31-.31-.67-.46-1.07-.46"/>
    <path class="cls-5" d="M162.14,19c-2.95,0-5.56,1.43-7.2,3.62h-69.11c-.05,1.6-.07,3.35-.07,5.3s.03,3.81.08,5.44h27.93v19.87c0,.41.15.77.46,1.07.31.31.66.46,1.07.46h7.28c.46,0,.89-.15,1.3-.46.41-.31.61-.66.61-1.07v-19.1c0-.51.25-.76.76-.77h11.51c.51,0,.76.26.76.77v19.1c0,.41.16.77.46,1.07.31.31.67.46,1.07.46h7.67c.41,0,.77-.15,1.07-.46.31-.31.46-.66.46-1.07v-19.87h6.68c1.64,2.2,4.25,3.62,7.2,3.62,4.97,0,8.99-4.03,8.99-8.99s-4.03-8.99-8.99-8.99M162.14,32.92c-2.72,0-4.92-2.2-4.92-4.92s2.21-4.92,4.92-4.92,4.92,2.2,4.92,4.92-2.2,4.92-4.92,4.92"/>
    <path class="cls-5" d="M148.26,2.63c0-.41-.15-.77-.46-1.07-.31-.31-.67-.46-1.07-.46h-7.67c-.41,0-.77.15-1.07.46-.31.31-.46.67-.46,1.07v18.29s10.73,0,10.73,0V2.63Z"/>
    <path class="cls-5" d="M124.49,2.63c0-.41-.15-.77-.46-1.07-.31-.31-.67-.46-1.07-.46h-7.67c-.41,0-.77.15-1.07.46s-.46.67-.46,1.07v18.29h10.73V2.63Z"/>
    <path class="cls-5" d="M71.44,22.63h-1.83c-1.91-3.49-5.61-5.86-9.86-5.86-3.52,0-6.65,1.62-8.71,4.14h0s6.48.01,6.48.01h.71l.5.5,1.86,1.86.5.5v8.41l-.5.5-1.88,1.88-.5.5h-7.17c2.06,2.54,5.2,4.15,8.71,4.15,4.26,0,7.97-2.37,9.87-5.87h1.83c-.05-1.64-.08-3.45-.08-5.44s.03-3.69.08-5.3"/>
    <path class="cls-3" d="M99,63.95l-4.07,15.58h-2.79l-2.6-9.34c-.06-.23-.14-.5-.21-.81-.08-.31-.15-.63-.23-.96-.07-.33-.14-.63-.19-.9-.05-.27-.09-.48-.11-.63-.02.15-.05.36-.1.63-.05.27-.11.57-.18.89-.07.32-.14.64-.22.96-.08.32-.15.6-.21.84l-2.56,9.33h-2.78l-4.06-15.58h2.57l2.25,9.13c.07.29.14.61.22.94.08.34.15.68.21,1.02.07.34.13.67.19,1,.06.32.1.62.14.88.04-.27.08-.57.14-.9.06-.33.12-.67.19-1.01.07-.34.14-.68.21-1,.07-.32.15-.61.23-.86l2.54-9.2h2.49l2.59,9.23c.08.26.15.56.23.88.07.33.15.66.22,1,.07.34.13.67.19.99.06.32.1.61.14.86.05-.35.11-.75.19-1.19.08-.45.17-.9.27-1.36.1-.46.2-.89.3-1.28l2.24-9.13h2.58Z"/>
    <polygon class="cls-3" points="115.71 79.53 106.88 79.53 106.88 63.95 115.71 63.95 115.71 66.1 109.44 66.1 109.44 70.33 115.31 70.33 115.31 72.47 109.44 72.47 109.44 77.36 115.71 77.36 115.71 79.53"/>
    <path class="cls-3" d="M124.74,63.95h4.64c2.01,0,3.53.29,4.55.87,1.02.58,1.53,1.59,1.53,3.02,0,.6-.1,1.13-.31,1.61-.21.48-.51.87-.91,1.18-.4.31-.89.52-1.47.62v.11c.6.11,1.14.29,1.61.57.47.27.85.66,1.12,1.16.27.5.41,1.16.41,1.96,0,.95-.22,1.76-.68,2.43-.45.67-1.09,1.18-1.93,1.52-.83.35-1.82.52-2.97.52h-5.6v-15.58ZM127.3,70.37h2.45c1.16,0,1.96-.19,2.41-.57.45-.38.67-.93.67-1.65s-.26-1.27-.79-1.6c-.53-.33-1.37-.49-2.52-.49h-2.22v4.3ZM127.3,72.44v4.94h2.7c1.19,0,2.03-.23,2.52-.69.48-.46.72-1.09.72-1.88,0-.48-.11-.9-.33-1.26-.22-.35-.57-.63-1.06-.82-.49-.2-1.15-.29-1.98-.29h-2.57Z"/>
    <path class="cls-3" d="M165.15,75.29c0,.92-.23,1.72-.68,2.39-.45.67-1.1,1.18-1.94,1.53-.84.36-1.85.53-3.01.53-.57,0-1.11-.03-1.63-.09-.52-.06-1.01-.16-1.46-.28-.46-.12-.88-.28-1.25-.45v-2.41c.63.28,1.34.53,2.12.75s1.58.34,2.39.34c.66,0,1.21-.09,1.65-.26.44-.17.76-.42.98-.75.21-.32.32-.7.32-1.14,0-.46-.12-.85-.37-1.17-.25-.32-.62-.61-1.12-.88-.5-.27-1.13-.55-1.88-.86-.51-.2-1-.44-1.46-.7-.47-.26-.88-.57-1.24-.93-.36-.36-.65-.78-.86-1.26-.21-.49-.32-1.06-.32-1.72,0-.88.21-1.63.63-2.26.42-.63,1.02-1.1,1.79-1.44.77-.33,1.67-.5,2.7-.5.82,0,1.59.09,2.31.26.72.17,1.43.41,2.13.72l-.81,2.06c-.64-.26-1.26-.47-1.86-.63-.6-.15-1.21-.23-1.84-.23-.54,0-1,.08-1.37.25-.38.16-.66.39-.86.69-.2.29-.29.64-.29,1.05,0,.45.11.84.34,1.15.22.31.57.59,1.05.85.47.26,1.08.54,1.83.85.86.36,1.59.73,2.19,1.12.6.39,1.06.86,1.38,1.4.32.54.48,1.22.48,2.04"/>
    <path class="cls-3" d="M187.66,71.72c0,1.2-.15,2.29-.45,3.28-.3.98-.76,1.83-1.36,2.54-.6.71-1.36,1.25-2.27,1.64-.91.38-1.97.58-3.2.58s-2.32-.19-3.23-.58c-.91-.38-1.67-.93-2.27-1.64-.6-.71-1.05-1.56-1.35-2.55-.3-.99-.45-2.08-.45-3.28,0-1.61.26-3.01.79-4.2s1.34-2.13,2.42-2.79c1.08-.67,2.45-1,4.11-1s2.97.33,4.04.99c1.07.66,1.88,1.59,2.42,2.79s.81,2.61.81,4.24M175.77,71.72c0,1.2.16,2.24.49,3.12.33.88.83,1.55,1.51,2.03.68.47,1.55.71,2.62.71s1.95-.24,2.62-.71c.68-.47,1.17-1.15,1.49-2.03.32-.88.48-1.92.48-3.12,0-1.83-.36-3.26-1.09-4.29-.73-1.03-1.89-1.55-3.48-1.55-1.07,0-1.94.24-2.63.7-.69.47-1.19,1.14-1.52,2.01-.33.87-.49,1.91-.49,3.13"/>
    <polygon class="cls-3" points="196.68 79.53 196.68 63.95 199.24 63.95 199.24 77.35 205.86 77.35 205.86 79.53 196.68 79.53"/>
    <path class="cls-3" d="M226.46,63.95v10.08c0,1.09-.23,2.06-.69,2.92s-1.15,1.54-2.07,2.04c-.92.5-2.08.75-3.48.75-2,0-3.52-.52-4.56-1.57-1.04-1.05-1.56-2.44-1.56-4.18v-10.04h2.56v9.82c0,1.3.31,2.26.92,2.88.61.62,1.52.93,2.74.93.84,0,1.52-.15,2.05-.44.53-.29.92-.73,1.17-1.3.25-.57.38-1.26.38-2.07v-9.81h2.55Z"/>
    <polygon class="cls-3" points="241.51 79.53 238.94 79.53 238.94 66.12 234.38 66.12 234.38 63.95 246.06 63.95 246.06 66.12 241.51 66.12 241.51 79.53"/>
    <rect class="cls-3" x="254.12" y="63.94" width="2.56" height="15.58"/>
    <path class="cls-3" d="M280.29,71.72c0,1.2-.15,2.29-.45,3.28-.3.98-.76,1.83-1.36,2.54-.6.71-1.36,1.25-2.27,1.64-.91.38-1.97.58-3.2.58s-2.32-.19-3.23-.58c-.91-.38-1.67-.93-2.27-1.64-.6-.71-1.05-1.56-1.35-2.55-.3-.99-.45-2.08-.45-3.28,0-1.61.26-3.01.79-4.2s1.34-2.13,2.42-2.79c1.08-.67,2.45-1,4.11-1s2.97.33,4.04.99c1.07.66,1.88,1.59,2.42,2.79s.81,2.61.81,4.24M268.39,71.72c0,1.2.16,2.24.49,3.12.33.88.83,1.55,1.51,2.03.68.47,1.55.71,2.62.71s1.95-.24,2.62-.71c.68-.47,1.17-1.15,1.49-2.03.32-.88.48-1.92.48-3.12,0-1.83-.36-3.26-1.09-4.29-.73-1.03-1.89-1.55-3.48-1.55-1.07,0-1.94.24-2.63.7-.69.47-1.19,1.14-1.52,2.01-.33.87-.49,1.91-.49,3.13"/>
    <path class="cls-3" d="M302.31,79.53h-3.14l-7.63-12.44h-.1c.03.42.05.86.08,1.33.02.47.05.95.06,1.45.02.5.03,1,.05,1.51v8.14h-2.32v-15.58h3.12l7.62,12.35h.07c-.02-.36-.03-.78-.05-1.25-.02-.47-.04-.95-.06-1.46-.02-.5-.03-.99-.04-1.46v-8.2h2.33v15.58Z"/>
    <path class="cls-3" d="M321.08,75.29c0,.92-.23,1.72-.68,2.39-.45.67-1.1,1.18-1.94,1.53-.84.36-1.85.53-3.01.53-.57,0-1.11-.03-1.63-.09-.52-.06-1.01-.16-1.46-.28-.46-.12-.88-.28-1.25-.45v-2.41c.63.28,1.34.53,2.12.75.78.22,1.58.34,2.39.34.66,0,1.21-.09,1.65-.26.44-.17.76-.42.98-.75s.32-.7.32-1.14c0-.46-.12-.85-.37-1.17-.25-.32-.62-.61-1.12-.88-.5-.27-1.13-.55-1.88-.86-.51-.2-1-.44-1.46-.7-.47-.26-.88-.57-1.24-.93-.36-.36-.65-.78-.86-1.26-.21-.49-.32-1.06-.32-1.72,0-.88.21-1.63.63-2.26.42-.63,1.02-1.1,1.79-1.44.77-.33,1.67-.5,2.7-.5.82,0,1.59.09,2.31.26.72.17,1.43.41,2.13.72l-.81,2.06c-.64-.26-1.26-.47-1.86-.63-.6-.15-1.21-.23-1.84-.23-.54,0-1,.08-1.37.25-.38.16-.66.39-.86.69-.2.29-.29.64-.29,1.05,0,.45.11.84.34,1.15.22.31.57.59,1.05.85.47.26,1.08.54,1.83.85.86.36,1.59.73,2.19,1.12.6.39,1.06.86,1.38,1.4.32.54.48,1.22.48,2.04"/>
  </g>
</svg>