<?xml version="1.0" encoding="UTF-8"?>
<svg id="Layer_4" data-name="Layer 4" xmlns="http://www.w3.org/2000/svg" viewBox="0 0 122.68 122.84">
  <defs>
    <style>
      .cls-1 {
        fill: #001d23;
      }
    </style>
  </defs>
  <path class="cls-1" d="M112.91.08H9.82C4.41.08.03,4.46.03,9.86v103.09c0,5.4,4.38,9.79,9.79,9.79h28.39c0-.07-.04-.14-.04-.21v-46.7c0-.82-.34-1.59-.94-2.15l-6.42-5.91c-1.52.9-3.28,1.43-5.16,1.43-5.6,0-10.15-4.55-10.15-10.15s4.55-10.15,10.15-10.15,10.15,4.55,10.15,10.15c0,.96-.14,1.89-.4,2.78l8.21,7.55c1.31,1.2,2.05,2.9,2.05,4.67v48.48c0,.08-.04.14-.04.21h6.19c0-.07-.04-.14-.04-.21v-58.75c0-.77-.31-1.52-.85-2.06l-9.98-9.98c-1.19-1.19-1.86-2.81-1.86-4.49v-16.28c-3.75-1.49-6.41-5.15-6.41-9.43,0-5.6,4.55-10.15,10.15-10.15s10.15,4.55,10.15,10.15c0,4.28-2.66,7.93-6.41,9.43v14.6c0,.77.31,1.52.85,2.06l9.98,9.98c1.19,1.19,1.86,2.81,1.86,4.49v60.43c0,.08-.04.14-.04.21h6.14V54.97c-4.93-1.48-8.53-6.05-8.53-11.46,0-4.37,2.35-8.19,5.86-10.28v8.34s2.26,2.26,2.26,2.26h7.76s2.27-2.27,2.27-2.27v-8.29c3.47,2.1,5.8,5.89,5.8,10.24,0,5.19-3.31,9.6-7.93,11.25v67.98h6.17c0-.07-.04-.14-.04-.21v-48.77c0-1.78.74-3.47,2.05-4.67l6.55-5.82c-.27-.92-.42-1.88-.42-2.88,0-5.6,4.55-10.15,10.15-10.15s10.15,4.55,10.15,10.15-4.55,10.15-10.15,10.15c-1.85,0-3.58-.51-5.08-1.37l-4.82,4.23c-.6.55-.94,1.33-.94,2.15v46.99c0,.08-.04.14-.04.21h26.51c5.4,0,9.79-4.38,9.79-9.79V9.86c0-5.4-4.38-9.79-9.79-9.79Z"/>
</svg>