<?xml version="1.0" encoding="UTF-8"?>
<svg id="WORKING_LAYER" xmlns="http://www.w3.org/2000/svg" xmlns:xlink="http://www.w3.org/1999/xlink" viewBox="0 0 400 56.04">
  <defs>
    <style>
      .cls-1 {
        fill: none;
      }

      .cls-2 {
        fill: #3b6a78;
      }

      .cls-3 {
        fill: #051d22;
      }

      .cls-4 {
        clip-path: url(#clippath);
      }
    </style>
    <clipPath id="clippath">
      <rect class="cls-1" x=".31" y=".27" width="399.47" height="55.44"/>
    </clipPath>
  </defs>
  <g class="cls-4">
    <path class="cls-2" d="M207.68,1.15h-7.36c-.36,0-.68.1-.96.31-.28.2-.45.49-.5.84l-6.67,35.34c-.05.36-.23.54-.54.54h-.46c-.31,0-.49-.18-.54-.54l-5.6-35.34c-.15-.77-.64-1.15-1.46-1.15h-6.13c-.82,0-1.3.38-1.46,1.15l-5.52,35.34c-.05.36-.23.54-.54.54h-.46c-.31,0-.49-.18-.54-.54l-6.67-35.34c-.05-.36-.22-.64-.5-.84-.28-.2-.6-.31-.96-.31h-7.36c-.97,0-1.46.38-1.46,1.15,0,.31.08.82.23,1.53l10.04,49.83c.05.36.22.64.5.84.28.2.6.31.96.31h10.66c.36,0,.68-.1.96-.31.28-.2.45-.49.5-.84l4.22-26.45c.05-.36.2-.54.46-.54s.41.18.46.54l4.22,26.45c.05.36.22.64.5.84.28.2.6.31.96.31h10.66c.36,0,.68-.1.96-.31.28-.2.45-.49.5-.84l10.12-49.83c.15-.72.23-1.23.23-1.53,0-.77-.49-1.15-1.46-1.15"/>
    <path class="cls-2" d="M239.43,30.84c5.32-3.07,7.97-7.59,7.97-13.57,0-3.17-.68-5.97-2.03-8.39-1.35-2.43-3.24-4.32-5.67-5.67-2.43-1.35-5.23-2.03-8.39-2.03h-16.87c-.41,0-.77.15-1.07.46-.31.31-.46.66-.46,1.07v50.6c0,.41.15.77.46,1.07.31.31.66.46,1.07.46h7.67c.41,0,.77-.15,1.07-.46.31-.31.46-.66.46-1.07v-19.17c0-.51.26-.77.77-.77h1.99c.66,0,1.12.33,1.38,1l7.97,19.09c.2.51.45.87.73,1.07.28.2.68.31,1.19.31h7.67c.56,0,1.02-.17,1.38-.5.36-.33.54-.75.54-1.26,0-.36-.13-.84-.38-1.46l-7.9-18.25c-.26-.66-.38-1.15-.38-1.46,0-.41.28-.77.84-1.07M234.79,21.14c-1,1-2.29,1.49-3.87,1.49h-6.52c-.51,0-.77-.26-.77-.77v-9.2c0-.51.26-.77.77-.77h6.52c1.58,0,2.87.5,3.87,1.49,1,1,1.49,2.29,1.49,3.87s-.5,2.87-1.49,3.87"/>
    <path class="cls-2" d="M318.89,1.2h-7.67c-.41,0-.77.15-1.07.46-.31.31-.46.67-.46,1.07v31.13c0,.26-.1.4-.31.42-.2.03-.33-.06-.38-.27l-10.5-31.44c-.31-.92-.95-1.38-1.92-1.38h-9.12c-.41,0-.77.15-1.07.46-.31.31-.46.67-.46,1.07v50.6c0,.41.15.77.46,1.07s.66.46,1.07.46h7.67c.41,0,.77-.15,1.07-.46.31-.31.46-.66.46-1.07v-28.83c0-.26.1-.39.31-.42.2-.02.33.06.38.27l10.43,29.21c.31.87,1,1.3,2.07,1.3h9.05c.41,0,.77-.15,1.07-.46.31-.31.46-.66.46-1.07V2.73c0-.41-.15-.77-.46-1.07-.31-.31-.67-.46-1.07-.46"/>
    <path class="cls-2" d="M336.41,14.85c1.12-2.45,3.37-3.68,6.75-3.68,2.15,0,3.88.63,5.21,1.88,1.33,1.25,1.99,2.87,1.99,4.87,0,.41.18.77.54,1.07.36.31.74.46,1.15.46h7.82c.41,0,.77-.15,1.07-.46.31-.31.46-.66.46-1.07,0-3.58-.81-6.7-2.42-9.35-1.61-2.66-3.79-4.69-6.56-6.09-2.76-1.41-5.85-2.11-9.28-2.11-3.99,0-7.41.92-10.27,2.76-2.86,1.84-4.98,4.32-6.36,7.44-.92,2.04-1.51,4.38-1.76,7.01-.26,2.63-.38,6.12-.38,10.47s.13,7.83.38,10.46c.26,2.63.84,4.97,1.76,7.01,1.38,3.12,3.5,5.6,6.36,7.44,2.86,1.84,6.29,2.76,10.27,2.76,3.48,0,6.59-.72,9.35-2.15,2.76-1.43,4.93-3.48,6.52-6.13,1.58-2.66,2.38-5.75,2.38-9.28,0-.41-.15-.77-.46-1.07-.31-.31-.66-.46-1.07-.46h-7.82c-.41,0-.79.15-1.15.46-.36.31-.54.67-.54,1.07,0,1.99-.67,3.62-1.99,4.87-1.33,1.25-3.07,1.88-5.21,1.88-3.37,0-5.62-1.23-6.75-3.68-.46-.97-.75-2.59-.88-4.87-.13-2.27-.19-5.05-.19-8.32s.06-6.05.19-8.32c.13-2.27.42-3.9.88-4.87"/>
    <path class="cls-2" d="M399.32,1.66c-.31-.31-.67-.46-1.07-.46h-7.67c-.41,0-.77.15-1.07.46-.31.31-.46.67-.46,1.07v19.17c0,.51-.26.77-.77.77h-11.5c-.51,0-.77-.26-.77-.77V2.73c0-.41-.15-.77-.46-1.07-.31-.31-.67-.46-1.07-.46h-7.67c-.41,0-.77.15-1.07.46-.31.31-.46.67-.46,1.07v50.6c0,.41.15.77.46,1.07.31.31.66.46,1.07.46h7.28c.46,0,.89-.15,1.3-.46.41-.31.61-.66.61-1.07v-19.17c0-.51.26-.77.77-.77h11.5c.51,0,.77.26.77.77v19.17c0,.41.15.77.46,1.07.31.31.66.46,1.07.46h7.67c.41,0,.77-.15,1.07-.46.31-.31.46-.66.46-1.07V2.73c0-.41-.15-.77-.46-1.07"/>
    <path class="cls-2" d="M280.52,22.66h-17.88c-.51,0-.77-.26-.77-.77v-9.26c0-.51.26-.77.77-.77h17.87c.41-.01.77-.17,1.07-.47.31-.31.46-.66.46-1.07V2.66c0-.41-.15-.77-.46-1.07-.31-.31-.67-.46-1.07-.46l-27.84.02c-.41,0-.77.15-1.07.46-.31.31-.46.66-.46,1.07v50.59c0,.41.15.77.46,1.08.31.31.66.46,1.07.46h27.84c.41,0,.77-.15,1.07-.46.31-.31.46-.67.46-1.08v-7.66c0-.41-.15-.77-.46-1.07-.31-.3-.67-.46-1.07-.46h-17.88c-.51,0-.77-.26-.77-.77v-9.14c0-.51.26-.77.77-.77h17.88c.41,0,.77-.15,1.07-.46.31-.31.46-.66.46-1.07v-7.66c0-.41-.15-.77-.46-1.07-.31-.31-.67-.46-1.07-.46"/>
    <path class="cls-3" d="M33.36,1.03H1.85c-.41,0-.77.15-1.08.46-.31.31-.46.67-.46,1.08v7.68c0,.41.15.77.46,1.08.31.31.67.46,1.08.46h9.61c.51,0,.77.26.77.77v40.73c0,.41.15.77.46,1.08.31.31.66.46,1.08.46h7.68c.41,0,.77-.15,1.08-.46.31-.31.46-.67.46-1.08V12.55c0-.51.26-.77.77-.77h9.61c.41,0,.77-.15,1.08-.46.31-.31.46-.67.46-1.08V2.57c0-.41-.15-.77-.46-1.08-.31-.31-.67-.46-1.08-.46"/>
    <path class="cls-3" d="M68.24,43.95h-18.16c-.51,0-.77-.26-.77-.77v-9.03c0-.51.26-.77.77-.77h7.41l1.88-1.88v-6.99l-1.86-1.86h-7.43c-.51,0-.77-.26-.77-.77v-9.37c0-.51.26-.77.77-.77h17.86c.41,0,.77-.15,1.07-.46.31-.31.46-.66.46-1.07V2.56c0-.41-.15-.77-.46-1.07-.31-.31-.67-.46-1.07-.46h-27.82c-.41,0-.77.15-1.07.46-.31.31-.46.66-.46,1.07v50.58c0,.41.15.77.46,1.07.31.31.66.46,1.07.46h28.13c.41,0,.77-.15,1.07-.46.31-.31.46-.66.46-1.07v-7.67c0-.41-.15-.77-.46-1.07-.31-.31-.66-.46-1.07-.46"/>
    <path class="cls-3" d="M108.57,36.12h-7.82c-.41,0-.79.15-1.15.46-.36.31-.54.67-.54,1.07,0,1.99-.67,4.03-1.99,5.28-1.33,1.25-3.07,1.88-5.21,1.88-3.37,0-5.62-1.23-6.75-3.68-.46-.97-.75-2.59-.88-4.87-.13-2.27-.19-5.05-.19-8.32s.06-6.04.19-8.32c.13-2.27.42-3.9.88-4.87,1.12-2.45,3.37-3.68,6.75-3.68,2.15,0,3.88.63,5.21,1.88,1.33,1.25,1.99,2.88,1.99,4.87,0,.41.18.77.54,1.07.36.31.74.46,1.15.46h7.82c.41,0,.77-.15,1.07-.46.31-.31.46-.66.46-1.07,0-3.58-.81-6.7-2.42-9.35-1.61-2.66-3.79-4.69-6.55-6.1-2.76-1.4-5.85-2.11-9.28-2.11-3.99,0-7.41.92-10.27,2.76-2.86,1.84-4.98,4.32-6.36,7.44-.92,2.04-1.51,4.38-1.76,7.01-.26,2.63-.38,6.12-.38,10.47s.13,7.83.38,10.47c.26,2.63.84,4.97,1.76,7.01,1.38,3.12,3.5,5.6,6.36,7.44,2.86,1.84,6.29,2.76,10.27,2.76,3.48,0,6.59-.72,9.35-2.15,2.76-1.43,4.93-3.48,6.52-6.13,1.58-2.66,2.38-6.16,2.38-9.69,0-.41-.15-.77-.46-1.07-.31-.31-.67-.46-1.07-.46"/>
    <path class="cls-3" d="M162.14,19.02c-2.95,0-5.56,1.43-7.2,3.62h-69.11c-.05,1.6-.07,3.35-.07,5.3s.03,3.81.08,5.44h27.93v19.87c0,.41.15.77.46,1.07.31.31.66.46,1.07.46h7.28c.46,0,.89-.15,1.3-.46.41-.31.61-.66.61-1.07v-19.1c0-.51.25-.76.76-.77h11.51c.51,0,.76.26.76.77v19.1c0,.41.16.77.46,1.07.31.31.67.46,1.07.46h7.67c.41,0,.77-.15,1.07-.46.31-.31.46-.66.46-1.07v-19.87h6.68c1.64,2.2,4.25,3.62,7.2,3.62,4.97,0,8.99-4.03,8.99-8.99s-4.03-8.99-8.99-8.99M162.14,32.93c-2.72,0-4.92-2.2-4.92-4.92s2.21-4.92,4.92-4.92,4.92,2.2,4.92,4.92-2.2,4.92-4.92,4.92"/>
    <path class="cls-3" d="M148.26,2.64c0-.41-.15-.77-.46-1.07-.31-.31-.67-.46-1.07-.46h-7.67c-.41,0-.77.15-1.07.46-.31.31-.46.67-.46,1.07v18.29s10.73,0,10.73,0V2.64Z"/>
    <path class="cls-3" d="M124.49,2.64c0-.41-.15-.77-.46-1.07-.31-.31-.67-.46-1.07-.46h-7.67c-.41,0-.77.15-1.07.46-.31.31-.46.67-.46,1.07v18.29h10.73V2.64Z"/>
    <path class="cls-3" d="M71.44,22.64h-1.83c-1.91-3.49-5.61-5.86-9.86-5.86-3.52,0-6.65,1.62-8.71,4.14h0s6.48.01,6.48.01h.71l.5.5,1.86,1.86.5.5v8.41l-.5.5-1.88,1.88-.5.5h-7.17c2.06,2.54,5.2,4.15,8.71,4.15,4.26,0,7.97-2.37,9.87-5.87h1.83c-.05-1.64-.08-3.45-.08-5.44s.03-3.69.08-5.3"/>
  </g>
</svg>